<?xml version="1.0" standalone="no"?>
<!DOCTYPE svg PUBLIC "-//W3C//DTD SVG 20010904//EN"
 "http://www.w3.org/TR/2001/REC-SVG-20010904/DTD/svg10.dtd">
<svg version="1.0" xmlns="http://www.w3.org/2000/svg"
 width="700.000000pt" height="700.000000pt" viewBox="0 0 700.000000 700.000000"
 preserveAspectRatio="xMidYMid meet">
<metadata>
Created by potrace 1.14, written by Peter Selinger 2001-2017
</metadata>
<g transform="translate(0.000000,700.000000) scale(0.100000,-0.100000)"
fill="#000000" stroke="none">
<path d="M2996 6907 c3 -10 9 -15 12 -12 3 3 0 11 -7 18 -10 9 -11 8 -5 -6z"/>
<path d="M3025 6910 c-3 -6 1 -7 9 -4 18 7 21 14 7 14 -6 0 -13 -4 -16 -10z"/>
<path d="M2939 6905 c-1 -3 -3 -9 -4 -15 -1 -5 -3 -15 -4 -21 0 -7 -8 -8 -18
-4 -10 4 -22 8 -28 9 -5 1 -17 6 -25 11 -13 8 -13 6 -2 -8 12 -15 11 -16 -16
-12 -32 3 -49 -15 -35 -38 5 -8 2 -8 -9 0 -8 7 -18 10 -22 6 -4 -4 -12 -1 -17
7 -9 13 -10 12 -5 -2 3 -10 0 -20 -6 -24 -6 -4 -8 -3 -5 3 4 6 -2 13 -14 16
-17 5 -18 3 -8 -9 10 -12 9 -13 -6 -8 -11 5 -16 4 -12 -3 4 -6 -2 -8 -16 -6
-17 3 -26 -2 -34 -19 -7 -13 -12 -17 -12 -9 -1 11 -4 11 -16 1 -8 -7 -15 -9
-15 -5 0 4 -6 2 -14 -4 -11 -9 -16 -9 -22 0 -4 7 -3 9 4 5 6 -3 13 -2 17 4 4
6 10 8 15 5 5 -3 11 -1 15 5 4 6 11 8 16 5 5 -4 9 -1 9 4 0 14 -17 14 -25 1
-4 -6 -10 -8 -15 -5 -5 3 -11 1 -15 -4 -3 -5 -14 -8 -25 -6 -13 3 -18 0 -14
-7 5 -8 1 -9 -11 -4 -15 5 -16 4 -5 -9 7 -8 17 -12 23 -8 6 3 7 1 3 -6 -6 -9
-13 -9 -30 3 -22 14 -23 13 -20 -10 1 -13 -2 -22 -7 -18 -5 3 -7 9 -4 14 3 5
0 12 -6 16 -7 4 -9 3 -6 -3 4 -6 -1 -17 -10 -24 -9 -8 -14 -9 -10 -3 10 17
-19 25 -32 10 -6 -7 -8 -16 -4 -19 3 -4 1 -7 -5 -7 -7 0 -12 5 -12 12 0 6 -3
8 -6 5 -4 -4 -1 -13 5 -21 9 -11 9 -16 0 -22 -7 -4 -9 -3 -6 3 4 6 0 14 -9 17
-10 4 -13 2 -8 -6 5 -8 2 -9 -9 -5 -10 3 -17 2 -17 -3 0 -6 -5 -10 -11 -10 -5
0 -7 5 -4 10 10 16 -1 11 -16 -7 -8 -9 -9 -14 -4 -11 6 4 17 -3 25 -15 12 -20
12 -21 -3 -8 -10 7 -17 10 -17 6 0 -4 -6 -2 -14 4 -11 9 -15 8 -20 -4 -4 -11
-2 -14 6 -9 7 4 8 3 4 -5 -4 -6 -16 -9 -27 -6 -22 7 -25 -4 -6 -25 10 -12 9
-12 -5 -1 -13 10 -18 9 -25 -3 -9 -16 -10 -16 -48 -16 -14 0 -25 -5 -25 -11 0
-5 4 -8 9 -4 5 3 13 0 17 -6 4 -7 3 -9 -4 -5 -6 3 -13 2 -16 -3 -4 -5 -17 -8
-31 -6 -22 2 -23 0 -13 -13 11 -13 10 -14 -2 -10 -8 2 -21 -3 -30 -12 -8 -9
-11 -11 -7 -4 4 7 3 15 -3 19 -6 4 -9 1 -8 -7 2 -7 -3 -12 -10 -10 -10 2 -10
-2 -2 -19 7 -11 9 -23 6 -27 -3 -3 -6 0 -6 6 0 7 -8 12 -17 12 -16 0 -16 -2
-3 -11 12 -8 9 -10 -13 -6 -22 3 -25 2 -16 -9 9 -11 8 -14 -1 -14 -7 0 -10 -7
-7 -15 4 -8 1 -17 -5 -21 -7 -4 -8 -3 -4 4 4 7 1 12 -8 12 -8 0 -18 -5 -22
-12 -4 -6 -3 -8 2 -5 6 3 11 -3 11 -14 2 -17 0 -18 -13 -4 -21 20 -22 19 -18
-11 1 -15 -4 -33 -12 -41 -8 -8 -14 -11 -14 -6 0 5 4 13 10 19 6 6 5 15 -1 24
-9 12 -10 12 -5 -3 4 -12 -1 -21 -17 -27 -12 -5 -16 -9 -9 -9 6 -1 12 -6 12
-12 0 -6 -7 -9 -14 -6 -10 4 -13 1 -9 -8 3 -8 10 -12 16 -8 6 4 7 1 2 -6 -4
-7 -15 -11 -25 -8 -14 4 -17 0 -15 -15 3 -15 0 -18 -12 -14 -13 5 -14 4 -3 -9
10 -12 10 -15 -1 -16 -8 0 -5 -4 6 -9 18 -8 18 -9 2 -9 -10 -1 -16 -5 -12 -10
3 -5 0 -13 -6 -16 -5 -4 -8 -13 -6 -19 3 -7 -1 -13 -9 -13 -7 0 -10 5 -7 10 3
6 1 7 -5 3 -6 -4 -8 -14 -5 -23 4 -11 3 -14 -6 -9 -8 5 -10 0 -7 -19 5 -27 5
-27 -16 -9 l-21 19 17 -27 18 -27 -27 5 c-15 3 -24 1 -21 -4 3 -5 -1 -9 -9 -9
-8 0 -12 4 -9 8 2 4 -1 11 -7 15 -7 4 -9 3 -6 -2 3 -6 2 -16 -4 -24 -7 -12 -9
-11 -9 5 0 17 -2 17 -10 5 -6 -10 -10 -11 -10 -2 0 6 -9 12 -20 12 -11 0 -20
-4 -20 -10 0 -5 8 -7 18 -4 14 5 15 4 2 -5 -11 -8 -18 -7 -26 4 -12 16 -39 21
-29 5 3 -6 -1 -7 -9 -4 -9 3 -14 9 -11 13 2 4 -2 8 -9 8 -8 0 -12 -5 -10 -12
3 -6 -6 -11 -21 -11 -20 0 -24 4 -19 19 4 13 2 17 -5 13 -6 -4 -11 -14 -11
-22 0 -17 -16 -19 -26 -2 -5 7 -3 8 6 3 8 -5 11 -4 6 3 -8 13 -36 5 -36 -10 0
-5 -7 -2 -16 6 -19 20 -21 20 -21 1 0 -8 5 -11 10 -8 6 3 7 2 4 -4 -4 -6 -19
-8 -34 -6 -25 4 -40 4 -96 2 -14 0 -16 -5 -11 -22 3 -12 3 -19 -1 -15 -5 4
-14 3 -21 -3 -8 -7 -14 -6 -20 2 -5 8 -3 9 6 4 9 -5 11 -4 6 3 -9 15 -47 -7
-39 -23 4 -5 3 -7 -2 -3 -4 4 -15 2 -23 -4 -8 -7 -20 -13 -28 -14 -16 -3 -19
12 -4 21 6 3 10 1 10 -5 0 -6 5 -8 11 -5 6 4 8 9 6 11 -8 8 -47 13 -46 6 3
-21 -2 -42 -11 -42 -5 0 -7 8 -4 18 5 13 4 14 -4 3 -6 -8 -15 -10 -23 -5 -10
6 -10 3 1 -11 14 -17 14 -18 -10 -5 l-25 13 20 -23 20 -23 -26 17 c-23 15 -28
15 -39 1 -7 -8 -16 -12 -21 -9 -5 3 -6 -1 -3 -9 3 -8 0 -18 -7 -23 -7 -4 -10
-3 -6 3 3 5 0 10 -8 10 -8 0 -12 -3 -10 -7 7 -12 -13 -34 -36 -37 -19 -3 -20
-1 -8 14 13 16 12 17 -3 4 -10 -7 -15 -17 -12 -22 3 -5 0 -9 -7 -9 -8 0 -9 -4
0 -13 8 -11 5 -13 -19 -9 -18 2 -30 0 -30 -7 0 -6 8 -8 18 -5 14 5 14 4 2 -5
-11 -7 -20 -5 -35 7 -19 16 -19 16 -5 -2 12 -15 12 -20 2 -23 -6 -3 -10 -8 -8
-12 3 -4 -1 -8 -9 -8 -8 0 -12 4 -9 8 2 4 0 10 -5 13 -5 4 -8 -5 -6 -19 2 -20
0 -23 -12 -14 -11 9 -12 9 -8 -4 4 -8 1 -18 -6 -23 -7 -4 -10 -3 -6 2 3 5 -2
10 -12 10 -9 0 -18 -8 -18 -18 -1 -10 3 -16 8 -12 6 3 5 -3 -2 -15 -9 -13 -16
-16 -20 -9 -4 7 -11 3 -18 -9 -5 -11 -7 -23 -3 -27 3 -4 -5 -3 -19 3 -22 8
-26 7 -25 -7 0 -10 -5 -16 -13 -14 -12 3 -12 1 0 -14 12 -15 12 -17 0 -9 -11
6 -13 4 -8 -8 3 -9 1 -19 -5 -23 -6 -4 -8 -3 -5 3 4 6 0 13 -8 16 -10 5 -13
-1 -10 -24 2 -17 0 -27 -6 -23 -5 3 -7 9 -4 14 3 5 1 12 -5 15 -6 4 -10 3 -9
-2 4 -21 -2 -34 -12 -27 -8 4 -9 0 -4 -15 7 -22 -9 -30 -19 -8 -4 6 -4 1 -2
-11 4 -20 1 -23 -15 -19 -10 3 -17 2 -14 -3 3 -4 -1 -13 -9 -19 -7 -6 -12 -23
-10 -37 1 -16 -2 -24 -9 -21 -7 3 -11 10 -9 16 1 7 -2 10 -7 6 -6 -3 -8 -12
-5 -20 6 -15 -29 -38 -41 -27 -5 4 -5 1 -1 -6 6 -11 12 -10 31 2 17 12 26 13
31 4 4 -6 3 -8 -3 -5 -13 8 -36 -17 -26 -27 4 -4 -1 -4 -12 0 -18 7 -19 6 -6
-10 8 -9 10 -16 5 -15 -5 1 -18 1 -29 0 -18 -2 -18 -3 5 -16 25 -14 25 -14
-10 -9 -26 4 -31 3 -20 -5 12 -8 12 -12 -2 -28 -8 -10 -13 -24 -11 -30 3 -7 0
-13 -7 -13 -6 0 -8 5 -5 10 7 12 -31 8 -42 -5 -5 -4 -3 -5 4 -1 6 3 14 2 18
-4 3 -5 1 -10 -5 -10 -6 0 -8 -5 -5 -10 4 -6 11 -7 17 -4 7 4 8 2 4 -4 -5 -9
-13 -9 -28 -1 -13 7 -18 7 -14 1 3 -6 -3 -14 -15 -17 -11 -4 -18 -9 -16 -12 3
-2 15 1 27 7 19 10 20 10 9 -8 -7 -11 -21 -19 -30 -17 -12 2 -16 -1 -13 -10 3
-7 0 -16 -7 -21 -8 -4 -10 -3 -5 4 5 8 1 10 -9 5 -13 -5 -14 -7 -3 -14 12 -8
11 -10 -12 -13 -12 -1 -14 -15 -4 -24 4 -4 4 -1 -1 7 -5 9 -4 12 3 7 16 -10
15 -14 -9 -27 -17 -9 -20 -8 -14 3 6 10 5 10 -5 1 -13 -12 -4 -37 11 -28 5 4
9 4 9 1 0 -3 -10 -10 -21 -17 -17 -9 -20 -8 -13 3 6 11 5 11 -9 -1 -17 -13
-14 -36 4 -26 5 4 9 3 10 -2 0 -4 2 -16 4 -25 2 -11 -2 -15 -13 -12 -10 3 -6
-1 8 -9 14 -9 25 -19 25 -24 0 -4 4 -7 9 -5 10 3 -13 -28 -28 -39 -4 -4 -3
-10 3 -13 6 -4 11 -2 11 3 0 14 27 14 35 1 4 -6 -1 -7 -12 -4 -16 5 -16 4 -2
-8 18 -15 33 -62 17 -52 -6 4 -6 -1 1 -13 6 -11 7 -24 3 -28 -4 -5 -2 -5 4 -2
7 4 14 -2 17 -15 5 -18 8 -19 22 -8 13 11 15 10 9 -4 -3 -9 -11 -16 -18 -16
-7 0 -6 -4 2 -9 8 -4 13 -11 13 -15 -1 -3 1 -6 4 -6 3 0 8 0 11 0 4 0 1 6 -5
14 -9 10 -9 16 -1 21 6 4 14 4 17 1 4 -3 1 -6 -5 -6 -9 0 -9 -5 0 -20 11 -17
10 -22 -2 -30 -9 -6 -10 -10 -3 -10 6 0 14 4 18 10 3 5 13 6 21 3 14 -5 13 -8
-6 -18 -19 -10 -20 -13 -6 -18 11 -5 15 -3 10 5 -5 7 -3 8 5 3 7 -4 11 -15 8
-25 -3 -12 0 -17 7 -14 7 3 24 -4 37 -15 17 -14 29 -17 41 -10 21 11 24 -1 6
-21 -9 -10 -6 -9 7 1 39 31 50 32 25 3 -14 -15 -17 -22 -7 -14 16 12 20 12 29
-1 8 -12 9 -11 5 2 -3 9 -1 22 5 30 8 11 9 10 4 -3 -3 -10 -1 -18 5 -18 6 0 7
-6 4 -12 -4 -7 0 -5 8 5 20 24 30 21 16 -5 -12 -22 -11 -22 8 -5 21 18 38 23
29 8 -3 -5 0 -11 8 -14 9 -4 12 2 10 19 -1 13 2 22 7 18 5 -3 7 -10 4 -15 -4
-5 -1 -9 5 -9 6 0 8 -4 5 -10 -3 -5 -1 -10 5 -10 7 0 10 7 6 15 -3 8 -1 15 3
15 5 0 11 -7 15 -15 3 -8 11 -15 18 -15 9 0 9 3 -2 10 -13 8 -13 11 -1 22 8 7
11 9 9 3 -3 -5 1 -17 10 -25 14 -13 15 -12 9 3 -3 9 -2 17 4 17 5 0 12 -7 16
-16 4 -12 8 -13 14 -3 11 18 60 19 77 3 20 -20 37 -17 21 4 -13 16 -12 16 6 1
12 -10 34 -15 55 -13 22 2 29 0 20 -6 -7 -4 -21 -7 -31 -5 -13 3 -16 -1 -12
-13 5 -11 8 -12 11 -4 3 10 7 10 20 0 12 -10 14 -10 8 0 -11 18 5 15 19 -4 10
-15 13 -15 27 0 14 14 17 14 22 0 9 -24 7 -31 -4 -14 -5 8 -10 10 -10 4 0 -6
8 -18 17 -25 11 -10 14 -10 9 -1 -4 7 -1 12 9 12 10 0 13 5 9 12 -4 7 -3 8 5
4 6 -4 8 -13 4 -19 -10 -16 -13 -37 -5 -36 23 4 42 -3 37 -11 -4 -6 -3 -10 2
-9 4 1 14 1 22 0 11 -1 11 -4 0 -18 -13 -15 -12 -15 7 -5 27 14 43 -2 38 -35
-3 -17 1 -23 14 -23 14 0 15 2 2 10 -8 5 -10 10 -4 10 6 0 18 -8 25 -17 10
-11 10 -14 2 -9 -7 4 -13 2 -13 -3 0 -10 14 -15 33 -12 5 1 6 -3 2 -9 -3 -6
-10 -8 -15 -5 -5 3 -12 0 -16 -6 -4 -8 -3 -9 4 -5 7 4 12 2 12 -4 0 -6 4 -9 9
-5 5 3 12 1 15 -4 4 -5 1 -13 -5 -17 -8 -4 -9 -3 -5 4 5 8 2 10 -9 6 -20 -8
-12 -16 17 -18 16 -1 22 -7 20 -20 -2 -11 1 -15 7 -11 7 4 8 0 4 -11 -5 -15
-7 -15 -15 0 -5 9 -6 21 -2 28 4 7 3 8 -4 4 -17 -10 -15 -21 9 -47 11 -13 18
-18 14 -11 -3 6 -2 12 3 12 6 0 13 -8 16 -17 4 -10 4 -14 0 -10 -9 8 -34 -11
-34 -27 0 -6 4 -5 9 3 13 20 42 6 34 -15 -4 -11 -2 -15 4 -11 7 4 10 0 8 -10
-1 -10 5 -27 14 -37 16 -19 15 -19 -12 -1 -24 15 -27 16 -21 1 3 -9 10 -16 15
-16 5 0 9 -4 9 -10 0 -5 -6 -8 -12 -6 -7 1 -9 1 -5 -2 5 -2 12 -15 18 -29 6
-15 14 -22 21 -17 7 4 10 4 6 -1 -4 -4 -2 -15 5 -23 9 -13 9 -14 0 -8 -8 4
-13 2 -13 -4 0 -6 -4 -8 -10 -5 -5 3 -10 1 -10 -5 0 -7 6 -10 14 -7 8 3 20 -1
27 -9 10 -12 9 -13 -5 -8 -9 3 -16 1 -16 -5 0 -6 6 -11 13 -12 6 0 3 -4 -8 -9
-17 -7 -17 -9 -2 -9 19 -1 23 -16 7 -26 -13 -8 -13 -25 1 -25 5 0 7 5 3 12 -4
6 -3 8 3 5 6 -4 8 -28 6 -54 -3 -35 -1 -44 6 -33 6 8 11 10 11 4 0 -5 -5 -15
-12 -22 -16 -16 4 -16 22 1 8 6 7 3 -3 -9 -22 -26 -22 -35 1 -27 14 5 13 3 -3
-11 -11 -9 -15 -16 -10 -15 22 3 27 -2 15 -16 -7 -8 -8 -15 -2 -15 16 0 8 -56
-11 -77 -14 -16 -14 -20 -2 -20 8 0 12 3 10 7 -2 3 6 7 18 7 20 2 20 1 4 -8
-9 -6 -14 -15 -11 -21 5 -7 1 -9 -9 -5 -11 4 -14 2 -10 -8 3 -8 9 -13 13 -10
4 3 10 -4 13 -14 3 -13 0 -18 -8 -15 -8 3 -11 -4 -10 -23 1 -15 7 -27 13 -26
6 2 9 -4 6 -12 -4 -9 0 -15 9 -15 9 0 18 -4 21 -9 3 -4 -6 -7 -19 -5 -21 2
-23 -1 -15 -16 5 -9 7 -20 4 -23 -3 -2 8 -15 23 -27 15 -13 20 -20 11 -17 -10
3 -22 -1 -30 -11 -12 -15 -11 -16 4 -4 12 10 18 10 23 1 4 -6 1 -15 -6 -20
-12 -7 -12 -9 0 -9 9 0 11 -7 8 -21 -4 -16 -3 -19 5 -11 16 16 37 -10 34 -42
-2 -14 1 -26 5 -26 5 0 9 -5 9 -11 0 -5 -4 -8 -9 -4 -5 3 -12 1 -15 -4 -4 -6
6 -8 24 -6 16 2 32 0 35 -5 3 -6 0 -7 -8 -4 -11 4 -15 -2 -13 -20 0 -14 4 -26
7 -26 4 0 10 -7 13 -16 6 -15 3 -14 -21 1 l-28 18 25 -29 c14 -16 18 -23 9
-16 -13 10 -19 9 -29 -3 -11 -13 -10 -15 6 -9 16 5 16 4 4 -5 -8 -6 -23 -8
-32 -5 -14 4 -16 1 -11 -12 5 -13 3 -15 -7 -9 -8 5 -11 4 -7 -2 9 -15 -13 -31
-40 -28 -14 1 -19 -3 -16 -12 4 -9 -3 -16 -16 -20 -11 -3 -21 -10 -21 -15 0
-5 5 -6 12 -2 6 4 8 3 5 -3 -4 -6 -22 -10 -40 -9 -32 1 -34 -1 -31 -29 2 -16
0 -25 -4 -19 -4 6 -17 13 -30 17 -20 5 -21 3 -11 -9 10 -13 8 -14 -14 -10 -15
2 -26 2 -26 -2 3 -21 -2 -32 -13 -26 -7 5 -8 3 -3 -6 6 -10 4 -12 -8 -7 -11 4
-14 2 -10 -8 3 -8 10 -12 17 -8 8 5 8 3 0 -8 -6 -8 -14 -21 -18 -29 -4 -9 -5
-7 -2 6 2 12 -2 21 -9 21 -7 0 -12 -8 -10 -18 2 -10 -1 -21 -6 -24 -5 -4 -7
-10 -4 -15 3 -5 0 -12 -6 -16 -8 -4 -9 -3 -5 4 10 17 -10 15 -27 -3 -8 -8 -18
-11 -21 -7 -4 3 -4 -1 0 -11 6 -17 7 -17 21 0 13 16 13 16 3 -4 -11 -23 -29
-26 -42 -8 -4 5 -6 0 -6 -12 1 -11 7 -20 13 -19 5 2 7 1 2 -1 -4 -3 -4 -9 -1
-15 4 -5 -4 -5 -16 2 -13 7 -20 8 -16 2 3 -6 1 -14 -5 -17 -5 -4 -8 -13 -5
-20 3 -8 -2 -19 -9 -25 -8 -7 -12 -16 -9 -21 3 -5 -2 -6 -10 -3 -11 4 -16 0
-16 -11 0 -12 -5 -15 -18 -11 -10 4 -7 -2 8 -13 23 -19 23 -20 4 -15 -12 3
-25 0 -30 -7 -5 -9 -2 -11 12 -6 18 7 18 6 1 -7 -14 -10 -15 -15 -5 -19 8 -4
7 -6 -4 -6 -10 -1 -18 -8 -18 -16 0 -8 -4 -15 -9 -15 -6 0 -8 10 -6 21 3 12 1
19 -2 15 -12 -12 -11 -60 1 -69 6 -5 1 -7 -12 -4 -13 3 -21 3 -18 0 3 -4 0
-13 -7 -22 -10 -14 -10 -14 5 -3 13 11 18 11 24 0 4 -7 4 -10 -1 -6 -4 4 -19
-4 -32 -18 -28 -30 -29 -35 -6 -28 17 5 17 5 0 -6 -9 -6 -21 -8 -26 -5 -6 3
-8 -5 -5 -19 4 -27 -14 -46 -46 -49 -18 -1 -19 -3 -6 -12 13 -10 12 -13 -3
-22 -14 -9 -22 -9 -31 0 -10 9 -10 7 0 -13 l13 -25 -23 20 -23 20 12 -23 c12
-22 11 -23 -11 -17 -20 7 -21 6 -10 -7 10 -12 9 -18 -3 -28 -8 -7 -12 -17 -8
-23 4 -7 0 -8 -11 -4 -14 6 -17 3 -12 -8 3 -9 2 -13 -4 -10 -6 3 -10 1 -10 -5
0 -6 -5 -8 -12 -4 -9 5 -8 2 1 -9 12 -15 12 -17 -2 -11 -15 5 -19 -18 -5 -32
4 -3 4 -17 2 -31 -3 -18 -1 -23 8 -17 10 6 11 5 1 -7 -10 -12 -10 -18 0 -28 9
-10 8 -11 -8 -6 -19 6 -19 6 -2 -8 18 -15 18 -15 0 -20 -16 -4 -16 -5 2 -6 17
-1 18 -3 5 -11 -12 -8 -10 -10 10 -10 l25 -1 -24 -13 -24 -14 23 -7 c18 -6 20
-9 9 -17 -10 -6 -7 -7 10 -3 18 6 22 4 15 -6 -13 -22 -13 -36 2 -36 7 0 11 4
8 9 -3 4 0 8 5 8 11 0 15 -15 12 -34 -1 -5 4 -4 13 3 10 8 16 9 21 1 3 -5 11
-10 16 -10 6 0 7 5 4 10 -4 6 -2 9 4 8 5 -2 17 6 26 17 16 20 16 20 6 -2 -9
-18 -8 -21 7 -18 9 1 16 8 15 14 -2 6 2 11 8 11 5 0 7 6 3 12 -5 9 -2 9 9 -1
14 -11 20 -11 32 -1 8 7 12 16 9 22 -3 5 0 16 7 24 10 13 14 12 33 -3 12 -10
15 -11 9 -3 -19 21 -16 35 4 19 15 -13 15 -12 4 8 -7 15 -8 23 -1 23 5 0 10
-4 10 -10 0 -5 4 -10 10 -10 5 0 6 8 3 17 -6 16 -5 17 12 3 11 -9 16 -10 11
-2 -4 6 -2 12 3 12 6 0 11 4 11 10 0 5 -6 8 -13 6 -6 -1 -9 -1 -4 1 4 3 4 10
0 16 -3 7 3 4 14 -6 16 -14 23 -15 29 -6 4 8 3 10 -4 5 -7 -4 -12 -3 -12 2 0
6 7 12 15 16 8 3 15 0 15 -7 0 -8 3 -9 8 -1 4 6 16 16 27 23 17 11 17 12 2 7
-12 -4 -17 -2 -15 6 3 7 10 14 16 14 7 1 15 3 20 4 4 1 11 2 15 1 4 -1 3 7 -2
18 -8 15 -7 20 5 25 8 3 13 10 9 15 -3 6 4 8 16 6 16 -3 19 0 15 12 -5 13 -4
14 8 4 11 -9 16 -9 22 0 4 7 3 10 -2 7 -5 -3 -15 0 -21 8 -7 7 -9 15 -4 19 5
3 11 -1 14 -7 3 -10 10 -8 25 5 21 19 23 32 8 55 -7 12 -4 12 14 2 20 -11 22
-10 16 5 -4 12 -2 16 8 12 10 -4 13 -1 10 8 -3 8 -13 11 -22 8 -9 -3 -6 3 8
13 14 10 27 21 30 25 3 3 13 5 23 3 11 -1 16 0 13 3 -3 4 0 13 7 22 10 14 10
14 -5 3 -12 -10 -18 -10 -24 -1 -4 8 -3 9 4 5 7 -4 12 -2 12 3 0 15 27 14 34
-1 3 -7 3 -1 0 15 -6 25 -1 30 26 29 3 0 14 11 24 26 11 14 14 22 8 18 -7 -4
-12 -2 -12 3 0 6 5 11 11 11 5 0 7 6 3 13 -5 8 -2 7 9 -2 10 -8 20 -11 24 -7
3 3 2 6 -4 6 -20 0 -21 26 -2 27 12 1 17 -3 13 -9 -4 -7 -2 -8 5 -4 9 6 9 11
0 22 -14 17 2 19 19 2 15 -15 15 -3 0 25 -11 21 -10 21 7 7 17 -13 18 -13 13
0 -4 11 1 16 15 18 18 1 19 -1 7 -9 -11 -7 -7 -8 14 -5 17 3 37 0 45 -7 14
-11 14 -10 2 6 -8 9 -9 17 -3 17 6 0 19 3 29 6 16 5 16 4 1 -5 -9 -6 -15 -20
-13 -31 2 -11 -1 -22 -6 -25 -5 -4 -7 -11 -4 -16 4 -5 -2 -9 -11 -9 -16 0 -16
1 1 20 10 11 15 20 10 20 -4 0 -14 -8 -21 -17 -9 -13 -9 -21 -1 -31 8 -10 7
-16 -4 -23 -8 -5 -9 -9 -3 -9 20 0 23 -27 5 -44 -15 -14 -17 -14 -18 5 -1 14
3 19 13 15 20 -8 17 1 -5 13 -15 9 -18 7 -17 -12 1 -12 -2 -27 -6 -34 -6 -7
-4 -14 3 -19 8 -5 10 -3 4 7 -5 8 -4 10 0 6 13 -11 15 -38 2 -30 -6 4 -8 0 -4
-10 3 -10 2 -17 -2 -17 -5 0 -8 -18 -6 -40 3 -39 -6 -52 -21 -28 -4 7 -3 8 4
4 12 -7 8 32 -4 43 -4 3 -4 -2 -1 -12 4 -11 0 -21 -12 -29 -16 -10 -17 -14 -5
-25 17 -17 18 -33 3 -33 -5 0 -7 6 -4 13 4 6 0 4 -8 -5 -8 -10 -18 -14 -22
-10 -5 4 -5 2 -1 -5 3 -6 -2 -17 -11 -23 -17 -11 -17 -11 0 -6 9 3 17 1 17 -4
0 -6 -5 -10 -11 -10 -5 0 -8 -3 -5 -8 2 -4 -2 -16 -10 -27 -8 -10 -14 -14 -14
-9 0 6 5 15 11 21 8 8 8 13 0 18 -6 3 -10 1 -9 -6 2 -6 -3 -14 -11 -17 -9 -3
-11 0 -6 8 5 9 4 11 -4 6 -8 -5 -9 -12 -2 -20 12 -14 11 -57 -1 -50 -5 3 -11
-2 -14 -11 -5 -11 -10 -13 -19 -5 -10 8 -15 8 -21 -1 -4 -7 -3 -9 3 -6 6 4 13
0 16 -8 4 -10 1 -12 -10 -8 -12 5 -14 3 -8 -8 7 -12 6 -12 -7 -1 -13 10 -18
10 -24 1 -4 -7 -3 -9 3 -6 6 4 14 0 17 -9 3 -8 2 -12 -4 -9 -6 3 -10 1 -10 -4
0 -6 -5 -11 -11 -11 -5 0 -7 5 -3 12 4 6 3 8 -4 5 -5 -4 -8 -15 -6 -25 3 -11
-3 -21 -17 -27 -19 -9 -26 -34 -8 -28 10 3 -2 -36 -13 -43 -5 -3 -3 -13 4 -22
12 -15 11 -16 -5 -3 -12 10 -15 17 -7 25 5 5 10 14 10 19 0 5 -7 1 -16 -8 -15
-14 -15 -18 1 -41 16 -25 16 -25 -5 -14 -15 8 -20 8 -16 1 4 -6 2 -11 -5 -11
-8 0 -9 -4 0 -13 7 -9 7 -17 1 -23 -11 -11 26 -58 39 -50 4 3 8 -1 8 -9 0 -11
-4 -12 -13 -4 -7 6 -19 9 -26 6 -8 -4 -7 -6 5 -6 19 -1 24 -21 5 -21 -9 0 -8
-4 2 -10 20 -13 39 -12 20 1 -13 9 -13 10 0 6 8 -2 14 -13 12 -24 -2 -12 4
-23 14 -27 9 -3 14 -12 11 -20 -4 -9 2 -12 21 -8 20 4 24 2 19 -11 -4 -12 -2
-14 10 -10 12 5 14 3 8 -7 -5 -8 -4 -11 3 -6 6 3 13 2 17 -4 3 -5 11 -10 16
-10 6 0 -2 11 -17 25 -15 14 -22 25 -17 25 6 0 16 -7 23 -15 13 -16 45 -21 35
-6 -3 5 0 13 6 17 8 4 9 3 5 -4 -8 -14 20 -12 43 2 10 6 12 5 7 -2 -4 -7 -2
-12 3 -12 6 0 11 5 11 10 0 6 5 10 11 10 5 0 7 -5 3 -12 -4 -7 -3 -8 5 -4 6 4
9 12 5 17 -3 6 8 8 28 5 18 -3 27 -3 21 0 -19 8 -16 22 6 34 15 7 23 6 35 -6
21 -21 20 -6 -1 20 -10 12 -11 16 -4 9 9 -7 21 -9 36 -3 13 5 26 6 31 2 4 -4
4 -1 0 6 -4 6 -2 12 3 12 6 0 10 3 10 8 -3 20 2 33 11 27 6 -4 7 -11 4 -17 -5
-7 -2 -8 5 -3 8 5 11 18 7 37 -5 27 -5 28 11 13 13 -13 18 -14 24 -3 8 12 13
4 10 -15 -1 -5 3 -5 9 -2 8 5 6 13 -5 25 -15 16 -14 17 7 16 14 -1 23 5 23 14
1 8 7 14 14 12 7 -1 10 2 6 8 -5 8 -11 8 -21 -1 -7 -6 -11 -15 -8 -20 3 -5 -2
-6 -10 -3 -12 5 -11 9 5 25 10 10 26 19 34 19 8 0 19 10 26 21 7 13 7 19 1 15
-6 -3 -14 -2 -17 4 -4 6 -1 9 7 8 7 -2 12 2 11 9 -2 7 4 10 12 7 10 -4 13 0
10 16 -3 14 0 20 8 17 7 -2 10 -13 9 -23 -2 -10 -2 -17 0 -14 33 43 33 44 19
36 -9 -6 -12 -5 -9 5 3 8 14 13 24 12 10 -1 13 0 7 3 -16 7 -17 34 -2 34 5 0
7 5 4 10 -4 6 -11 7 -17 4 -7 -4 -8 -2 -4 4 5 9 13 9 29 0 19 -10 21 -9 9 4
-9 11 -10 18 -2 23 6 3 8 10 5 15 -5 8 33 26 47 22 4 -1 4 6 1 15 -4 11 -3 14
5 9 8 -5 10 -2 6 8 -3 9 -11 13 -18 9 -6 -4 -5 1 3 11 8 9 20 15 27 12 8 -3
11 5 10 24 -1 17 2 26 8 23 5 -4 7 1 3 11 -4 10 -3 15 3 11 6 -3 10 -1 10 5 0
6 6 8 13 5 6 -4 5 0 -4 7 -14 11 -14 15 -2 26 7 7 10 18 7 24 -4 7 -2 8 4 4 9
-5 9 -13 2 -27 -7 -13 -7 -19 0 -19 5 0 10 7 10 16 0 8 5 12 11 8 7 -4 6 2 -2
17 -11 21 -10 22 3 12 19 -17 31 -4 15 15 -10 13 -9 14 2 8 10 -7 12 -3 6 15
-4 16 -3 20 3 11 8 -11 13 -12 30 -1 11 7 18 19 15 26 -4 9 0 11 13 6 11 -4
15 -3 10 5 -3 6 -2 14 4 17 6 4 9 1 8 -6 -2 -6 3 -14 10 -16 8 -3 10 1 5 13
-4 12 -3 15 6 10 15 -10 43 13 37 30 -3 8 0 11 9 7 8 -3 13 -8 10 -12 -2 -4 2
-8 10 -8 10 0 11 5 5 16 -7 13 -2 17 21 17 16 1 29 -2 29 -7 0 -4 -9 -6 -20
-4 -11 2 -18 0 -15 -5 5 -8 50 -5 64 5 4 2 17 -3 31 -11 14 -7 21 -13 17 -14
-5 0 -17 5 -27 10 -13 7 -21 7 -25 0 -4 -6 -3 -10 2 -9 20 3 34 -2 28 -11 -3
-5 0 -7 8 -4 8 3 21 -2 30 -10 16 -17 32 -22 23 -8 -3 5 1 9 8 9 15 0 15 -14
2 -35 -4 -7 -5 -16 -2 -19 3 -4 6 0 6 8 0 8 7 4 16 -9 9 -13 22 -21 30 -18 9
3 19 -4 26 -19 6 -13 15 -22 20 -18 6 3 5 -4 -1 -15 -8 -15 -8 -23 1 -28 6 -4
8 -3 5 3 -4 6 -1 16 7 22 11 9 13 6 10 -19 -2 -16 1 -30 7 -30 6 0 7 -4 4 -10
-3 -6 1 -7 9 -4 11 4 16 0 16 -14 0 -12 5 -24 10 -27 6 -4 8 -10 6 -14 -3 -4
1 -8 9 -8 12 0 12 4 -2 20 -18 19 -17 19 5 6 27 -17 28 -25 5 -39 -15 -8 -13
-9 11 -6 28 5 28 5 10 -16 -19 -21 -19 -21 6 -8 24 13 24 12 10 -6 -8 -10 -11
-16 -6 -12 5 4 17 3 27 -3 15 -8 17 -14 9 -29 -7 -13 -7 -21 0 -25 6 -4 7 -11
4 -17 -4 -6 -2 -8 4 -4 6 3 12 1 15 -6 2 -7 3 -5 2 4 -2 10 1 18 7 18 6 0 8
-13 6 -29 -2 -17 -1 -28 3 -25 4 2 10 0 14 -6 4 -6 10 -8 15 -5 13 8 24 -16
27 -58 2 -28 -1 -36 -10 -31 -8 5 -7 2 2 -9 19 -24 33 -21 27 6 -3 12 -3 16 0
9 3 -6 9 -10 13 -8 8 5 6 -55 -3 -96 -3 -15 -2 -29 3 -32 4 -3 7 6 5 19 -1 14
1 23 5 20 9 -5 8 -42 -2 -51 -4 -4 -7 -12 -7 -18 0 -6 4 -5 9 2 6 11 9 9 13
-6 3 -11 1 -26 -4 -33 -8 -11 -9 -11 -5 2 3 9 -1 16 -9 16 -12 0 -12 -4 0 -22
11 -17 12 -25 3 -36 -9 -10 -7 -9 6 1 17 12 18 12 15 -6 -1 -10 -10 -25 -18
-32 -13 -10 -12 -11 3 -6 13 5 18 2 17 -7 -5 -29 0 -38 18 -32 14 5 13 3 -3
-10 -17 -13 -18 -18 -6 -29 10 -9 12 -9 7 -1 -4 7 -2 13 4 13 7 0 10 -6 7 -12
-2 -7 -13 -12 -23 -11 -19 1 -19 1 0 -12 10 -8 22 -12 27 -10 9 6 5 -31 -7
-60 -7 -20 -7 -20 17 0 13 11 18 13 12 5 -15 -16 -17 -34 -4 -26 11 7 8 -20
-3 -31 -4 -4 -6 -2 -4 6 2 7 -4 16 -12 18 -13 4 -13 3 0 -6 8 -6 11 -11 6 -11
-5 0 -3 -6 3 -14 9 -11 9 -15 -1 -18 -8 -3 -6 -7 6 -11 10 -4 15 -3 11 3 -3 6
-2 10 3 10 6 0 13 -7 16 -16 3 -8 2 -13 -3 -10 -5 3 -11 -11 -13 -33 -3 -32 0
-38 16 -37 11 1 21 -6 23 -14 4 -13 3 -13 -6 0 -9 13 -11 13 -11 -2 0 -10 5
-18 10 -18 6 0 10 -16 10 -35 0 -26 4 -35 17 -35 15 0 14 -2 -3 -14 -17 -13
-17 -15 -3 -21 9 -3 20 -5 25 -4 21 4 26 -2 13 -17 -10 -13 -10 -17 1 -24 8
-5 17 -7 21 -4 4 2 6 -4 5 -13 -2 -10 -8 -18 -14 -18 -6 0 -14 -4 -19 -9 -5
-5 -3 -6 5 -2 7 4 12 2 12 -5 0 -8 4 -8 15 1 8 7 16 9 16 4 1 -5 2 -13 4 -19
1 -5 3 -16 3 -23 1 -7 7 -10 14 -6 6 4 8 3 5 -3 -4 -6 0 -16 8 -23 12 -10 13
-16 3 -27 -9 -11 -9 -16 2 -23 20 -12 28 -1 10 11 -13 9 -13 10 0 6 8 -2 15
-15 15 -28 0 -13 5 -31 10 -39 5 -8 10 -19 10 -25 0 -13 28 -13 38 0 5 5 6 1
3 -10 -5 -20 5 -48 18 -46 17 2 20 0 9 -7 -9 -5 -6 -12 10 -21 19 -12 20 -12
10 0 -8 10 -9 19 -2 29 9 13 10 13 6 0 -2 -8 3 -24 12 -34 9 -11 10 -16 4 -12
-8 4 -13 2 -13 -6 0 -7 -8 -22 -17 -33 -12 -16 -14 -16 -10 -3 3 10 1 20 -5
24 -7 4 -8 3 -4 -4 4 -7 2 -12 -4 -12 -6 0 -8 -4 -5 -10 9 -14 -8 -12 -25 3
-12 10 -12 9 -2 -4 12 -16 7 -29 -10 -29 -5 0 -6 4 -3 10 3 6 -1 7 -10 3 -13
-4 -14 -8 -4 -14 10 -6 10 -11 -1 -23 -7 -9 -15 -14 -18 -11 -3 3 -10 0 -17
-5 -8 -7 -12 -5 -12 5 0 8 5 11 10 8 6 -3 7 -1 3 5 -4 6 -14 8 -24 5 -15 -6
-16 -5 -2 13 14 17 13 18 -1 7 -9 -7 -20 -9 -25 -5 -5 4 0 -4 11 -17 11 -14
15 -21 8 -18 -6 4 -13 4 -16 0 -2 -5 -2 -2 -1 5 2 6 -4 12 -12 12 -8 0 -13 4
-9 9 9 15 -15 25 -28 12 -9 -9 -7 -11 8 -5 15 5 17 4 9 -5 -9 -10 -19 -8 -45
8 -38 24 -63 28 -33 7 10 -8 16 -18 11 -22 -4 -4 -7 -2 -7 4 0 7 -9 12 -21 12
-13 0 -18 4 -13 13 5 7 0 6 -11 -3 -17 -14 -18 -13 -12 2 5 15 2 16 -19 8 -33
-13 -37 -13 -28 3 4 6 -5 0 -21 -16 -15 -15 -31 -24 -34 -21 -3 4 0 9 7 11 7
3 17 14 23 26 9 19 8 20 -3 7 -7 -9 -21 -16 -30 -17 -35 -1 -39 -3 -33 -13 3
-6 -1 -7 -9 -4 -9 3 -13 11 -9 17 3 6 1 7 -5 3 -7 -4 -12 -14 -12 -22 0 -8 -4
-13 -10 -9 -5 3 -7 13 -4 23 4 10 2 13 -3 7 -4 -6 -16 -11 -25 -12 -35 -1 -38
-3 -38 -20 1 -17 2 -17 15 1 14 18 14 18 12 -1 -1 -15 -8 -19 -27 -18 -34 2
-51 -5 -43 -18 3 -6 1 -7 -5 -3 -6 4 -8 14 -5 24 4 13 3 14 -6 6 -7 -6 -13
-21 -14 -33 -1 -11 -5 -21 -10 -21 -5 0 -7 6 -4 13 3 8 1 20 -4 28 -6 10 -9 7
-9 -13 0 -26 -8 -33 -37 -29 -7 1 -13 -3 -13 -9 0 -6 4 -9 9 -5 5 3 13 1 16
-5 4 -6 3 -10 -2 -9 -26 5 -35 -2 -30 -23 5 -21 5 -21 -7 -6 -14 18 -27 24
-25 11 1 -5 1 -19 0 -33 -2 -24 -2 -24 -16 -6 -18 24 -20 13 -3 -17 10 -20 10
-21 -6 -8 -14 12 -16 12 -10 -3 4 -12 2 -15 -9 -10 -8 3 -18 1 -22 -5 -3 -7 0
-8 9 -5 23 9 19 -13 -4 -26 -11 -6 -19 -15 -17 -20 1 -5 -7 -16 -18 -25 -20
-16 -20 -16 2 -6 27 14 33 14 33 1 0 -5 -7 -10 -15 -10 -9 0 -12 -6 -8 -17 4
-10 2 -14 -4 -10 -13 8 -13 -24 0 -41 7 -9 6 -11 -8 -6 -15 6 -16 4 -5 -16 8
-15 8 -20 1 -16 -6 4 -11 2 -11 -4 0 -6 -5 -8 -11 -4 -7 4 -6 -3 2 -17 7 -13
12 -25 11 -26 -6 -9 1 -20 19 -31 12 -8 18 -9 14 -3 -3 6 -1 11 4 11 6 0 11
-4 11 -10 0 -5 7 -6 17 -3 11 5 14 3 8 -6 -6 -10 -2 -11 15 -6 17 5 21 4 15
-6 -5 -8 -5 -11 0 -7 4 4 15 2 23 -5 13 -11 14 -9 2 13 -12 22 -11 24 2 13 8
-7 18 -9 23 -5 4 4 4 -4 0 -17 -6 -21 -5 -22 7 -10 8 7 13 23 11 34 -3 15 -1
14 8 -5 7 -14 11 -28 11 -32 -3 -15 7 -8 18 12 8 15 7 19 -2 16 -7 -1 -10 -1
-5 1 4 3 4 10 0 16 -4 7 1 6 10 -2 9 -7 17 -21 17 -30 0 -13 2 -14 9 -1 6 8 7
18 4 24 -3 5 -1 6 6 2 6 -4 8 -13 4 -19 -4 -8 -1 -7 9 1 13 10 18 10 24 1 4
-7 3 -9 -3 -6 -5 3 -10 0 -10 -8 0 -11 4 -11 23 1 17 12 23 12 26 3 3 -9 7 -7
11 5 4 9 3 15 -1 12 -5 -3 -9 1 -9 8 0 7 6 13 12 13 7 0 11 -12 10 -27 -1 -17
3 -27 11 -27 10 0 11 4 3 13 -11 14 4 27 32 29 11 1 15 -4 11 -13 -3 -10 -1
-13 6 -9 6 4 12 2 15 -5 2 -7 3 -6 2 2 -1 9 4 21 11 28 11 10 13 9 11 -9 -1
-12 4 -24 11 -26 6 -3 12 0 12 7 0 6 -5 8 -10 5 -6 -3 -10 -4 -10 -1 0 3 9 10
20 16 16 9 19 8 13 -6 -5 -13 -3 -15 7 -9 10 6 12 4 7 -8 -4 -10 -2 -17 4 -17
6 0 9 8 7 18 -3 10 1 23 8 30 11 10 13 9 11 -9 -1 -14 4 -23 16 -24 9 -2 15 1
11 6 -3 5 -11 6 -17 2 -7 -4 -5 2 3 13 22 29 24 30 17 12 -4 -10 -2 -18 3 -18
5 0 17 -8 26 -18 17 -16 17 -16 11 0 -3 10 -2 20 4 23 5 4 6 11 3 17 -4 7 -2
8 4 4 6 -4 8 -14 5 -24 -5 -14 -3 -15 8 -4 19 17 34 15 19 -3 -7 -9 -10 -18
-6 -22 3 -3 6 -1 6 5 0 16 43 10 58 -8 10 -13 11 -12 5 4 -5 15 -3 17 8 11 8
-5 37 -10 66 -10 42 -1 50 1 41 12 -12 14 -22 18 -14 4 7 -11 -50 -8 -61 3 -4
5 -3 6 5 2 13 -8 16 4 5 20 -5 5 0 1 10 -10 12 -13 21 -16 25 -9 8 12 44 14
36 1 -8 -12 10 -10 24 4 9 9 15 9 25 -1 10 -10 9 -11 -4 -6 -10 4 -20 2 -23
-4 -4 -6 7 -9 31 -6 21 2 44 -1 50 -7 7 -6 13 -7 13 -2 0 5 5 2 11 -6 8 -12 9
-11 4 6 -5 19 -2 21 35 18 26 -1 38 1 34 8 -4 7 -2 8 5 4 6 -4 9 -11 7 -15 -3
-4 1 -8 9 -8 8 0 12 4 9 8 -2 4 1 11 7 15 8 4 9 3 5 -4 -9 -15 6 -16 20 -2 7
7 11 6 11 -4 0 -8 -4 -13 -8 -10 -4 2 -10 0 -13 -5 -4 -5 2 -8 11 -7 10 2 22
-2 26 -8 5 -6 6 -3 3 9 -5 18 -1 20 34 20 25 1 40 -4 40 -11 0 -7 8 -11 18 -9
9 1 23 -2 30 -8 9 -7 11 -6 6 7 -3 9 -2 16 2 17 5 0 17 2 27 4 9 2 15 -1 11
-6 -3 -5 1 -9 8 -10 7 0 23 -2 36 -5 12 -2 22 0 22 5 0 6 -9 8 -20 6 -11 -2
-22 0 -25 4 -2 5 16 7 41 4 35 -3 44 -1 38 9 -6 10 -3 9 9 -1 13 -10 17 -10
17 -1 0 9 3 10 13 1 8 -6 18 -7 22 -3 5 4 5 1 1 -6 -4 -6 -2 -12 4 -12 6 0 8
-5 4 -12 -4 -7 -3 -8 5 -4 6 4 9 11 7 14 -2 4 6 12 20 19 18 8 26 8 34 -2 9
-10 7 -13 -7 -10 -23 3 -35 -4 -27 -16 4 -6 11 -6 20 2 8 6 14 8 14 4 0 -5 9
0 20 10 11 10 20 15 20 11 0 -4 8 -2 18 3 13 7 23 6 30 -1 7 -7 12 -9 12 -5 0
4 10 2 23 -5 28 -16 39 -17 55 -5 8 6 12 5 12 -4 0 -12 2 -12 9 -1 4 7 20 15
34 16 15 2 24 -1 21 -5 -3 -5 2 -6 10 -3 9 3 13 10 10 16 -3 5 3 4 14 -3 12
-7 19 -16 17 -19 -2 -4 2 -7 10 -7 8 0 11 5 8 11 -4 6 4 2 17 -9 l23 -20 -11
20 c-9 19 -7 20 25 20 27 0 38 -5 44 -20 7 -19 8 -19 8 3 1 12 4 22 9 23 4 0
15 2 24 4 10 2 21 -2 25 -7 4 -7 1 -8 -7 -3 -9 6 -10 2 -5 -15 5 -17 4 -21 -5
-15 -9 6 -11 4 -5 -5 6 -10 12 -7 26 11 9 13 15 28 12 34 -4 5 -2 6 3 2 5 -5
9 -14 9 -20 0 -15 68 -18 77 -3 5 8 8 7 8 -1 0 -16 36 -17 46 -2 4 8 0 9 -15
4 -11 -3 -21 -2 -21 3 0 5 10 9 23 8 12 -1 21 -6 20 -12 -1 -5 7 -15 18 -22
11 -7 19 -8 19 -2 0 5 -4 10 -10 10 -5 0 -10 4 -10 9 0 5 10 7 23 4 18 -4 19
-3 7 6 -8 6 -10 11 -5 11 6 0 21 -8 35 -17 21 -15 23 -15 17 0 -4 11 -2 14 8
10 8 -3 12 -10 8 -16 -4 -7 0 -8 11 -4 10 4 20 7 22 7 2 0 4 5 4 11 0 5 -5 7
-12 3 -7 -5 -8 -3 -3 6 6 10 11 10 20 -3 7 -9 15 -14 18 -10 4 3 7 1 7 -5 0
-7 5 -12 11 -12 5 0 8 4 5 8 -3 5 1 9 9 9 8 0 12 -4 10 -8 -3 -3 3 -13 13 -20
15 -12 16 -12 4 2 -10 13 -9 19 3 29 9 7 18 10 22 6 3 -3 1 -6 -5 -6 -7 0 -12
-5 -12 -11 0 -7 11 -4 26 6 15 9 23 12 20 6 -4 -6 -3 -11 3 -11 6 0 8 -8 5
-17 -5 -14 -4 -15 4 -4 6 8 8 20 5 28 -3 7 0 13 7 13 6 0 9 -4 5 -9 -3 -5 -1
-12 5 -16 6 -4 7 -12 3 -18 -4 -7 0 -7 10 1 9 8 21 11 28 7 8 -5 7 0 -1 16 -7
13 -9 21 -5 17 5 -4 14 -3 21 3 9 8 16 5 24 -11 6 -11 8 -26 4 -32 -4 -7 -3
-8 4 -4 7 4 12 17 12 29 0 17 2 19 9 8 5 -8 7 -21 4 -30 -3 -12 -2 -12 7 2 6
9 16 15 22 11 6 -4 8 2 4 17 -7 23 -6 23 5 4 7 -11 16 -23 21 -26 12 -8 58 1
58 12 0 5 -8 6 -17 2 -19 -7 -18 -5 10 17 10 7 17 9 16 4 -4 -21 2 -35 11 -29
6 4 7 12 4 18 -5 8 -3 8 7 0 16 -15 33 -17 24 -3 -3 6 -1 10 5 10 7 0 10 -7 6
-15 -7 -18 5 -20 23 -3 11 10 13 10 7 1 -4 -7 -2 -13 3 -13 6 0 11 5 11 10 0
6 5 10 11 10 5 0 7 -5 4 -10 -11 -18 34 -11 45 8 10 15 11 15 6 0 -6 -19 15
-30 35 -18 7 5 18 5 25 -1 8 -7 15 -6 20 2 5 8 3 10 -7 4 -11 -6 -11 -5 -2 5
9 10 15 10 27 -2 8 -9 12 -19 8 -23 -4 -4 3 -3 15 4 16 8 23 8 26 -2 4 -9 6
-9 6 1 1 6 6 12 12 12 5 0 7 -6 3 -12 -5 -9 -2 -9 9 1 16 13 22 8 18 -13 -1
-5 5 -4 13 3 9 7 14 17 11 21 -3 5 -1 11 4 14 5 4 13 1 17 -5 4 -8 3 -9 -4 -5
-8 5 -10 1 -5 -10 5 -15 7 -15 15 0 5 9 6 21 2 28 -4 7 -3 8 5 4 6 -4 9 -16 6
-26 -3 -10 -1 -21 4 -25 7 -4 8 1 4 12 -6 16 -5 17 13 3 15 -11 16 -11 7 0
-20 22 -15 35 6 16 12 -11 21 -13 25 -7 4 6 13 8 21 4 8 -3 15 0 15 7 0 6 5 8
12 4 6 -4 8 -3 4 4 -3 6 -2 13 3 16 5 4 7 21 5 39 -4 30 -4 31 11 13 8 -11 15
-15 15 -10 0 18 -22 33 -39 27 -13 -5 -12 -2 4 18 15 18 16 20 3 10 -15 -11
-18 -11 -18 1 0 8 5 19 11 25 9 9 8 16 -3 27 -9 8 -18 13 -20 11 -3 -3 -5 2
-5 10 0 11 4 12 13 4 15 -13 30 7 25 36 -2 18 -1 18 11 4 15 -19 53 -35 42
-18 -4 8 0 7 15 0 11 -7 21 -14 21 -17 0 -3 -6 -2 -12 2 -7 4 -10 4 -6 -1 4
-4 2 -15 -4 -24 -7 -9 -1 -6 13 7 30 27 49 30 26 4 -14 -15 -15 -19 -2 -19 8
0 12 4 10 8 -3 4 2 9 10 12 10 4 12 1 8 -10 -5 -13 -3 -13 15 -4 26 14 32 14
32 0 0 -5 -4 -8 -8 -5 -5 3 -9 -1 -9 -9 0 -10 4 -12 12 -5 7 5 15 7 19 3 3 -4
13 -8 21 -10 8 -2 23 -5 33 -7 9 -2 26 1 37 7 17 9 18 8 7 -5 -11 -14 -9 -16
12 -14 13 0 22 4 20 8 -2 4 1 10 7 14 8 5 9 3 4 -6 -6 -10 -2 -11 19 -6 17 4
25 3 22 -3 -3 -5 1 -12 10 -15 11 -4 15 -2 11 8 -7 18 15 15 39 -4 16 -14 16
-13 4 10 -12 23 -12 24 3 11 10 -7 17 -10 17 -5 0 4 5 3 12 -4 7 -7 17 -12 23
-12 5 0 3 5 -5 10 -13 8 -13 11 -1 22 10 10 12 10 7 0 -4 -6 -2 -12 3 -12 6 0
11 6 11 13 0 8 3 7 9 -3 6 -8 7 -19 4 -25 -4 -5 5 0 19 13 13 12 28 19 33 15
4 -5 5 -2 1 5 -6 9 -11 10 -21 2 -9 -7 -16 -6 -26 7 -12 16 -12 17 2 6 9 -7
19 -9 23 -5 11 10 30 9 38 -3 5 -6 8 -3 8 7 0 11 5 15 15 12 8 -4 12 -11 8
-18 -3 -6 -2 -7 3 -3 5 5 10 13 10 18 1 5 2 14 3 20 0 5 6 7 11 4 6 -3 10 -1
10 6 0 7 10 9 25 7 20 -4 23 -3 14 8 -14 16 2 19 18 3 8 -8 13 -7 18 2 5 7 4
10 -2 6 -18 -11 -22 17 -5 33 14 13 15 12 9 -3 -3 -9 -2 -17 3 -17 6 0 10 7
10 15 0 8 9 15 20 15 13 0 18 5 14 15 -5 11 -2 13 12 8 13 -5 15 -3 9 7 -6 9
-4 11 5 5 10 -6 12 -4 7 8 -5 13 -2 15 18 7 19 -7 23 -6 18 5 -3 8 -10 12 -17
8 -6 -3 -5 0 2 8 11 12 14 12 22 -1 8 -13 11 -13 22 -1 7 8 8 11 2 8 -6 -3
-11 1 -11 9 0 16 68 74 87 74 6 0 8 5 4 12 -4 7 -3 8 4 4 7 -4 12 -2 12 4 0 6
4 9 9 5 5 -3 13 0 17 6 4 7 3 9 -4 5 -6 -3 -13 -3 -16 2 -8 13 26 11 44 -2 8
-6 6 0 -5 13 -17 21 -18 24 -2 18 11 -4 17 -1 17 9 0 8 -4 12 -10 9 -5 -3 -10
-1 -10 4 0 15 13 14 29 -2 8 -7 11 -7 8 -1 -4 7 3 14 15 17 17 5 19 9 9 21 -9
11 -9 16 0 22 8 4 9 3 5 -4 -4 -7 -2 -12 5 -12 6 0 9 8 6 19 -3 14 -1 18 9 14
8 -3 11 -10 7 -16 -3 -5 -2 -7 4 -4 5 3 8 19 7 36 -1 18 5 36 14 43 9 8 13 8
9 2 -4 -7 0 -14 8 -17 11 -5 12 -1 5 17 -10 27 -5 37 15 30 7 -3 16 0 21 7 4
8 3 10 -4 5 -7 -4 -12 -3 -12 2 0 16 13 22 26 11 9 -8 11 -5 7 10 -3 12 -10
18 -17 14 -6 -4 -5 1 3 10 7 9 20 17 28 17 11 0 12 4 2 23 -12 21 -11 21 6 7
15 -12 17 -12 10 -1 -6 11 -4 13 11 8 17 -6 17 -6 3 5 -16 13 -15 38 2 38 6 0
7 -6 3 -13 -4 -6 -3 -9 1 -4 13 12 16 47 4 47 -5 0 -7 -5 -4 -10 3 -6 1 -10
-5 -10 -7 0 -10 6 -7 13 2 6 13 12 24 11 15 0 19 5 15 19 -4 15 -1 18 9 13 8
-5 8 -2 -2 6 -20 16 -21 48 -1 41 11 -5 11 -7 0 -14 -10 -7 -9 -9 5 -9 21 0
22 13 2 30 -8 7 -15 18 -15 24 0 8 2 8 8 -1 5 -8 12 -8 26 3 12 8 15 14 7 14
-9 0 -10 4 -4 13 5 6 8 26 8 42 -1 17 3 37 9 45 8 12 8 13 -4 3 -21 -19 -39
-16 -37 6 0 11 5 17 9 15 5 -3 5 -11 1 -17 -4 -7 2 -5 13 3 29 22 30 24 12 17
-12 -4 -18 -1 -18 9 0 8 -4 13 -8 10 -12 -7 -11 26 1 42 5 6 6 12 2 12 -4 0
-1 8 6 18 7 9 9 14 5 10 -14 -12 -36 11 -29 30 4 15 3 15 -6 2 -9 -13 -11 -12
-12 5 -1 11 -1 24 0 28 1 5 -3 6 -9 2 -6 -3 -8 -11 -5 -16 4 -5 1 -9 -5 -9 -7
0 -9 7 -6 16 3 9 6 20 6 25 0 6 5 7 12 3 7 -4 8 -3 4 4 -4 6 -14 8 -22 5 -14
-5 -15 -3 -4 17 8 15 8 20 1 16 -6 -4 -11 -2 -11 4 0 6 -5 8 -12 4 -8 -5 -9
-2 -5 9 3 10 2 17 -3 17 -5 0 -7 9 -5 20 5 24 2 25 -16 3 -9 -11 -10 -14 -2
-9 9 5 11 2 6 -9 -5 -13 -7 -14 -14 -3 -5 7 -9 20 -9 29 0 9 -7 22 -15 29 -8
7 -13 15 -10 19 2 4 -10 5 -27 3 -24 -4 -30 -1 -26 9 4 11 -3 14 -28 13 -19
-1 -32 2 -29 6 3 5 15 6 28 4 20 -4 20 -4 2 4 -11 5 -26 7 -34 4 -8 -3 -12 -1
-8 5 3 5 0 10 -8 10 -8 0 -12 -4 -9 -9 3 -4 0 -8 -5 -8 -6 0 -11 5 -11 10 0 6
-7 10 -15 10 -8 0 -15 -5 -15 -11 0 -5 4 -8 8 -5 5 3 9 -2 9 -11 0 -13 -4 -12
-18 5 -17 21 -36 31 -25 13 3 -5 -1 -12 -10 -15 -10 -4 -13 -2 -8 6 5 7 2 9
-9 5 -9 -3 -17 -1 -20 6 -2 6 -6 3 -10 -7 -4 -9 -3 -15 2 -11 5 3 13 0 17 -6
4 -8 3 -9 -4 -5 -7 4 -12 2 -12 -4 0 -7 -5 -6 -14 2 -8 8 -10 15 -4 19 7 4 7
9 0 13 -5 3 -13 -1 -16 -10 -3 -8 -11 -12 -17 -8 -8 4 -9 3 -5 -4 4 -7 1 -13
-8 -13 -9 -1 -20 -3 -26 -4 -5 -1 -14 -3 -20 -4 -5 0 -10 -9 -10 -18 0 -16 -2
-16 -10 -3 -9 13 -12 13 -24 -2 -7 -10 -19 -18 -25 -18 -7 0 -9 -4 -6 -10 3
-6 -1 -7 -9 -4 -9 3 -16 11 -16 16 0 6 -8 4 -17 -3 -15 -12 -16 -12 -10 5 6
16 5 17 -7 6 -9 -6 -21 -10 -28 -7 -8 3 -6 6 5 6 10 1 15 6 12 11 -3 6 -1 10
6 10 7 0 10 3 7 6 -4 3 -16 0 -28 -6 -13 -7 -20 -8 -16 -2 3 6 1 14 -5 17 -5
4 -8 13 -5 21 3 7 1 16 -4 19 -11 7 -8 41 5 52 4 5 5 3 2 -3 -3 -6 0 -11 7
-11 7 0 13 6 13 13 0 7 -3 11 -7 9 -3 -2 -12 0 -20 6 -9 5 -10 9 -3 9 7 0 11
12 10 27 -1 16 -8 28 -14 28 -6 0 -15 3 -19 7 -3 4 3 6 14 3 12 -2 27 4 34 13
12 15 11 16 -4 3 -15 -11 -19 -11 -24 4 -4 10 -2 27 5 37 7 12 8 17 2 13 -6
-3 -11 -1 -11 4 0 6 5 11 10 11 6 0 10 5 10 11 0 5 -4 7 -10 4 -5 -3 -10 -1
-10 4 0 6 6 11 13 11 8 0 7 3 -3 9 -8 6 -18 7 -22 5 -4 -3 -8 0 -8 6 0 7 7 10
14 7 10 -4 13 -1 9 9 -3 7 -10 14 -16 14 -6 0 -2 7 9 15 10 8 15 15 9 15 -5 0
-4 4 3 9 11 7 11 9 -1 14 -11 4 -15 0 -12 -14 2 -10 0 -19 -6 -19 -9 0 -8 18
6 73 4 16 3 27 -3 27 -5 0 -12 11 -14 25 -6 31 0 32 12 3 8 -20 8 -19 7 9 -1
17 -4 30 -7 28 -4 -2 -12 6 -20 18 -12 20 -12 21 3 9 12 -10 17 -10 23 -1 4 8
3 9 -4 5 -7 -4 -12 -1 -12 8 0 9 6 16 13 16 6 1 1 7 -13 15 -14 8 -19 14 -11
15 8 0 4 8 -10 19 -26 21 -23 36 5 25 14 -5 15 -9 4 -15 -9 -6 -9 -9 -1 -9 19
0 26 19 10 26 -16 6 -17 20 -3 43 5 8 -2 6 -20 -5 l-29 -18 20 24 c17 20 18
22 3 17 -10 -3 -20 -1 -24 5 -4 6 -3 8 3 5 7 -4 12 7 15 27 2 19 1 33 -3 30
-4 -2 -17 9 -28 25 -13 18 -17 32 -11 36 5 3 11 4 11 1 1 -3 3 -10 4 -16 1 -5
3 -14 4 -18 0 -5 8 -9 16 -9 8 0 15 4 15 9 0 4 -6 8 -14 8 -9 0 -13 7 -11 20
2 11 -1 19 -8 17 -7 -1 -12 8 -11 19 0 16 -4 21 -15 17 -11 -3 -10 0 3 11 11
9 14 16 7 16 -7 0 -9 5 -5 12 4 7 3 8 -5 4 -6 -4 -8 -12 -5 -18 4 -7 2 -8 -5
-4 -9 6 -8 14 4 32 11 17 12 23 3 22 -7 -2 -12 3 -10 10 1 8 -2 11 -8 7 -6 -3
-7 -12 -3 -18 4 -7 0 -6 -10 2 -18 14 -23 26 -8 17 5 -3 11 1 15 9 6 16 -26
39 -39 27 -5 -4 -5 -2 -2 4 3 6 0 23 -8 38 -8 14 -10 24 -5 21 5 -3 11 -1 15
5 5 9 -7 14 -27 11 -4 0 -4 7 -1 16 5 12 3 14 -8 9 -8 -4 -5 0 5 8 11 9 14 16
7 16 -7 0 -10 4 -6 9 3 5 0 13 -6 17 -8 4 -9 3 -5 -4 4 -7 3 -12 -2 -12 -13 0
-33 49 -26 62 4 6 -2 8 -17 4 -20 -6 -21 -5 -6 4 19 12 23 30 6 30 -5 0 -7 -4
-4 -10 3 -5 1 -10 -6 -10 -7 0 -9 10 -6 26 3 19 0 27 -17 34 -11 4 -24 6 -28
4 -11 -7 4 40 16 49 7 5 3 7 -9 5 -15 -2 -20 2 -19 21 1 23 0 23 -13 5 -14
-18 -14 -18 -11 6 2 17 -1 24 -11 22 -8 -2 -11 3 -8 12 4 10 1 13 -9 9 -9 -3
-14 2 -14 15 0 11 6 23 13 25 6 3 -2 4 -18 2 -36 -4 -80 36 -62 54 16 16 -6
14 -23 -1 -12 -11 -12 -10 -3 2 12 18 13 51 1 44 -5 -3 -6 -9 -4 -13 3 -4 -1
-8 -9 -8 -10 0 -11 5 -4 18 15 28 11 34 -11 14 -17 -15 -20 -16 -15 -3 8 19
-35 64 -46 47 -4 -7 -8 -6 -12 4 -6 16 9 17 31 3 7 -4 15 -6 18 -3 6 6 -68 42
-79 39 -5 -1 -6 2 -2 8 5 8 11 7 21 -1 8 -6 17 -9 21 -5 3 3 1 6 -6 6 -7 0
-10 4 -7 9 3 4 -7 8 -22 7 -15 0 -26 5 -25 11 1 6 -5 17 -13 24 -13 10 -17 10
-25 -2 -8 -10 -8 -8 -4 10 6 18 4 22 -6 15 -11 -6 -11 -4 0 9 13 16 12 17 -13
8 -14 -6 -27 -8 -27 -6 -1 3 -2 11 -3 18 -1 6 -8 11 -15 9 -7 -1 -10 2 -6 7 3
6 12 8 20 4 8 -3 15 -1 15 5 0 5 -8 9 -17 9 -42 0 -46 2 -33 18 10 12 7 13
-19 5 -17 -5 -30 -5 -29 -2 3 18 -15 40 -29 35 -10 -4 -14 -2 -10 4 13 21 -4
41 -33 39 -16 -1 -26 2 -24 6 3 4 -2 11 -11 14 -12 5 -13 9 -4 20 10 12 8 13
-6 8 -14 -6 -16 -4 -10 6 5 9 4 11 -4 6 -6 -4 -9 -11 -6 -16 3 -5 0 -12 -6
-16 -8 -4 -9 -3 -5 4 4 7 2 12 -4 12 -7 0 -10 6 -7 14 8 20 -4 28 -21 13 -13
-9 -14 -9 -8 1 4 7 1 12 -8 12 -9 0 -16 -5 -16 -12 0 -6 -3 -8 -6 -5 -4 4 -1
13 6 22 11 13 10 14 -6 8 -17 -6 -18 -5 -4 12 14 17 14 18 -7 7 -30 -17 -38
-15 -22 5 13 15 12 15 -11 3 -24 -13 -24 -12 -10 5 14 17 14 18 -10 5 -22 -12
-24 -12 -12 2 10 13 10 18 1 24 -8 4 -9 3 -5 -4 4 -7 2 -12 -3 -12 -6 0 -11 5
-11 11 0 5 -13 15 -30 20 -17 6 -27 16 -23 22 3 6 1 7 -5 3 -6 -4 -9 -14 -6
-24 5 -14 4 -15 -5 -2 -6 8 -8 24 -6 35 3 11 2 15 -1 8 -3 -7 -12 -9 -21 -6
-8 3 -19 0 -24 -8 -6 -10 -9 -8 -10 11 -1 14 0 30 1 35 1 6 -2 7 -6 3 -4 -4
-14 -2 -23 4 -9 7 -7 2 4 -11 l20 -24 -21 11 c-12 6 -24 9 -27 6 -3 -3 -11 4
-17 16 -9 17 -17 20 -38 15 -26 -6 -26 -6 -7 9 11 8 17 18 13 22 -5 4 -17 -1
-27 -11 -20 -17 -20 -17 -15 11 3 22 2 25 -6 14 -9 -13 -13 -12 -27 5 -13 16
-15 17 -10 3 4 -10 2 -18 -3 -18 -9 0 -14 14 -11 33 0 4 -4 7 -10 7 -6 0 -9
-7 -6 -15 4 -8 2 -17 -4 -20 -5 -4 -8 -1 -7 7 2 7 -4 12 -14 10 -9 -1 -19 2
-22 7 -3 5 2 8 11 7 9 0 18 6 20 14 3 9 1 11 -4 4 -4 -5 -18 -10 -30 -10 -18
0 -22 5 -18 21 5 18 5 18 -5 3 -6 -10 -16 -18 -22 -18 -7 0 -6 5 2 15 16 19 6
20 -13 1 -11 -12 -15 -11 -27 8 -12 19 -12 20 3 8 12 -11 17 -11 23 0 4 7 4
10 -1 6 -4 -4 -14 -3 -21 3 -8 7 -14 7 -19 -1 -3 -5 -11 -10 -16 -10 -6 0 -7
4 -4 10 3 6 -1 10 -9 10 -9 0 -16 5 -16 12 0 6 -3 8 -6 5 -4 -4 -2 -13 4 -20
9 -10 8 -14 -3 -14 -8 0 -12 4 -9 9 3 4 0 8 -6 8 -6 0 -9 4 -6 9 9 14 -20 21
-33 8 -9 -9 -11 -8 -6 3 4 11 -2 16 -22 18 -26 2 -26 2 -7 -13 18 -16 18 -16
-3 -5 -12 5 -25 15 -29 22 -4 6 -3 8 3 5 6 -4 17 1 24 11 12 15 12 16 -2 4
-13 -10 -18 -10 -28 1 -11 14 -45 16 -57 4 -11 -10 -24 -8 -24 4 0 5 5 7 12 3
6 -4 8 -3 5 4 -8 12 -48 4 -60 -12 -5 -6 -5 -1 -2 12 6 19 3 22 -25 22 -17 0
-29 4 -26 9 3 5 -1 11 -9 15 -8 3 -17 0 -21 -6 -5 -7 -2 -8 6 -3 9 5 11 4 6
-4 -4 -6 -13 -8 -19 -4 -12 8 -17 9 -37 12 -5 0 -10 8 -10 16 0 8 -5 15 -11
15 -5 0 -7 -6 -4 -12 4 -7 -2 -4 -12 8 -10 11 -25 18 -32 16 -8 -3 -11 0 -7 6
4 6 -5 5 -20 -3 -27 -14 -54 -10 -54 7 0 6 8 4 18 -3 15 -12 16 -12 5 2 -7 9
-11 18 -8 20 2 3 -5 5 -15 6 -11 1 -20 -3 -20 -8 0 -6 4 -7 10 -4 6 3 7 -1 3
-10 -4 -12 -8 -13 -13 -4 -5 6 -15 9 -23 6 -12 -4 -14 0 -11 21 2 15 1 22 -3
16 -11 -14 -52 -24 -58 -14 -3 5 -16 7 -30 6 -13 -2 -22 0 -20 4 2 4 -3 16
-11 26 -9 10 -13 13 -9 7 7 -15 -4 -17 -24 -4 -10 7 -19 4 -27 -7 -11 -15 -12
-14 -7 8 6 23 5 24 -12 10 -11 -9 -16 -10 -11 -2 4 7 1 12 -9 12 -9 0 -13 -4
-10 -10 3 -5 1 -10 -4 -10 -6 0 -11 5 -11 11 0 5 -4 8 -9 4 -5 -3 -12 -1 -16
5 -4 6 -10 8 -15 5 -5 -3 -12 0 -16 6 -5 8 -3 9 6 4 9 -5 11 -4 6 4 -6 9 -11
9 -24 -1 -12 -10 -14 -10 -8 0 10 17 -24 29 -35 11 -7 -11 -9 -9 -9 8 0 29
-16 38 -30 16 -10 -16 -11 -15 -6 5 3 17 1 21 -7 14 -15 -12 -48 -12 -41 0 3
5 10 6 15 3 5 -3 6 1 3 9 -5 14 -8 14 -21 1 -16 -17 -27 -20 -18 -5 3 5 1 18
-5 27 -11 16 -11 16 -6 1 3 -10 0 -20 -6 -24 -7 -4 -8 -3 -4 4 4 7 2 12 -3 12
-6 0 -11 -5 -11 -12 0 -6 -3 -8 -6 -5 -4 4 -1 13 6 22 11 13 10 14 -4 9 -12
-5 -15 -2 -10 12 5 15 4 16 -4 4 -6 -8 -8 -18 -6 -22 3 -4 0 -8 -7 -8 -6 0 -9
8 -7 18 4 13 -1 18 -16 20 -17 1 -18 -1 -6 -8 9 -6 10 -10 3 -10 -21 0 -24 18
-6 30 13 8 14 10 3 9 -28 -3 -41 1 -36 10 4 5 -2 7 -12 4 -11 -2 -25 3 -33 14
-13 17 -13 17 6 3 18 -14 19 -13 8 1 -7 9 -12 18 -10 20 1 3 -6 -4 -15 -14
-17 -18 -17 -17 -15 10 2 22 -2 27 -15 25 -12 -2 -18 4 -19 15 0 14 -2 13 -9
-4 -12 -28 -20 -30 -13 -3 4 14 0 20 -10 20 -9 0 -18 9 -22 19 -4 13 -12 18
-22 14 -12 -5 -14 -3 -8 7 6 9 4 12 -6 8 -19 -7 -55 17 -40 27 6 3 11 12 11
18 0 7 -4 6 -10 -3 -9 -13 -10 -13 -10 0 0 13 -1 13 -11 0 -9 -12 -10 -10 -6
8 4 17 2 21 -7 13 -8 -7 -17 -6 -26 1 -13 8 -13 9 1 5 9 -3 16 1 16 8 0 7 -7
12 -16 11 -9 0 -15 5 -13 12 2 10 -2 10 -17 3 -21 -12 -32 -5 -24 15 5 13 -7
18 -33 15 -6 -1 -18 7 -25 16 -12 16 -12 17 1 8 14 -9 2 2 -38 36 -7 5 -10 14
-7 19 3 6 -1 7 -10 3 -13 -5 -14 -7 -3 -14 9 -6 6 -8 -9 -6 -12 2 -26 7 -30
12 -5 4 -2 5 5 1 7 -4 12 -1 12 9 0 9 -4 13 -10 10 -5 -3 -10 1 -10 9 0 9 -5
16 -11 16 -5 0 -8 -4 -5 -8 3 -5 -1 -9 -9 -9 -8 0 -12 4 -9 9 3 4 -2 8 -10 8
-9 0 -16 4 -16 9 0 5 8 8 18 6 9 -1 11 0 4 2 -7 3 -9 10 -5 16 4 7 -1 6 -10
-2 -10 -8 -21 -11 -24 -7 -4 4 -2 11 6 15 7 5 -4 7 -28 5 -27 -1 -40 1 -38 9
1 7 -8 11 -20 11 -13 -1 -20 3 -17 7 3 5 10 6 16 3 7 -4 6 0 -1 13 -15 30 -55
53 -72 42 -19 -12 -29 -11 -29 2 0 5 5 7 10 4 6 -3 10 -1 10 4 0 11 -6 13 -40
15 -8 1 -16 7 -16 14 -1 6 -3 15 -4 20 -1 4 -2 11 -1 15 1 5 -3 5 -9 2 -6 -4
-9 -14 -6 -24 6 -14 5 -15 -6 0 -7 9 -20 19 -28 22 -9 4 -6 5 8 3 12 -2 22 0
22 6 0 6 -13 8 -29 6 -17 -2 -30 -2 -29 1 2 24 -4 41 -12 36 -5 -3 -10 1 -10
9 0 9 -5 16 -11 16 -5 0 -7 -5 -3 -12 4 -7 3 -8 -5 -4 -9 6 -9 11 1 24 11 13
11 14 -8 4 -18 -9 -25 -8 -39 8 -10 11 -15 20 -11 20 4 0 2 9 -4 20 -6 11 -16
20 -23 20 -7 0 -6 -4 3 -10 9 -6 10 -10 3 -10 -20 0 -24 17 -8 30 14 12 13 15
-5 35 -11 12 -17 26 -13 30 5 5 0 3 -10 -4 -9 -8 -21 -10 -25 -6 -4 4 -1 10 6
13 10 3 5 10 -15 23 -15 10 -23 19 -16 19 7 0 10 7 6 16 -3 9 -12 13 -22 10
-9 -3 -6 1 6 10 12 9 19 22 16 30 -4 12 -8 12 -22 2 -14 -11 -14 -11 -4 3 7 9
9 20 5 24 -4 5 -1 5 6 1 6 -4 12 -2 12 3 0 6 -4 11 -10 11 -5 0 -10 5 -10 11
0 5 5 7 10 4 6 -4 9 -1 8 7 -2 7 2 12 9 11 9 -2 11 16 3 37 -1 3 -2 9 -1 13 1
5 -3 6 -9 2 -8 -5 -8 -11 0 -20 9 -11 6 -16 -12 -26 -19 -10 -21 -10 -12 2 5
8 9 24 8 37 0 12 3 22 7 22 5 0 9 5 9 11 0 5 -4 7 -10 4 -5 -3 -10 -1 -10 4 0
6 5 11 10 11 6 0 10 5 10 11 0 5 -4 8 -9 5 -5 -3 -11 1 -14 9 -4 10 -1 12 10
8 11 -4 14 -2 11 8 -3 8 -11 13 -18 11 -10 -2 -10 1 -4 10 12 15 12 28 1 46
-5 6 -5 12 0 12 4 0 1 5 -7 10 -12 8 -12 10 -1 10 11 0 11 3 0 18 -13 15 -12
16 3 4 13 -11 18 -11 24 0 4 7 4 10 0 6 -10 -9 -52 29 -43 39 4 3 7 1 7 -4 0
-13 25 -11 37 2 4 4 3 5 -3 2 -7 -4 -17 0 -24 8 -11 13 -10 14 2 10 9 -4 22 0
30 8 11 11 19 12 33 5 13 -8 16 -8 10 2 -5 8 -3 11 6 8 8 -3 25 4 38 16 l24
21 -16 -25 c-26 -38 -20 -45 9 -11 14 17 30 29 34 26 5 -3 11 1 13 7 3 8 6 5
6 -6 1 -12 -4 -16 -13 -13 -9 4 -13 1 -10 -6 5 -15 41 -20 49 -6 3 5 -1 6 -10
3 -10 -4 -14 -2 -10 8 3 8 11 15 18 16 51 7 74 6 86 -3 12 -8 13 -6 8 7 -4 13
-1 16 14 13 10 -2 24 -7 31 -11 6 -4 8 -3 5 3 -4 5 6 10 23 10 17 0 27 -5 23
-10 -4 -6 -1 -7 6 -3 9 6 8 13 -6 29 -9 12 -11 16 -3 10 8 -7 23 -13 34 -12
12 0 15 3 9 6 -7 2 -13 10 -13 16 1 7 10 1 20 -12 14 -16 20 -18 20 -8 0 10 8
13 26 9 16 -3 25 -1 21 5 -3 5 0 10 8 10 8 0 11 -5 8 -10 -3 -5 0 -7 8 -5 8 3
13 10 12 16 -1 5 5 9 15 7 9 -1 21 3 25 9 5 6 6 0 2 -14 -6 -24 -5 -24 9 -6 9
10 13 23 9 29 -3 6 -1 7 5 3 7 -4 12 -2 12 5 0 7 3 9 6 6 4 -4 1 -13 -6 -22
-19 -23 -3 -18 20 7 11 12 20 16 20 10 0 -7 5 -12 11 -12 5 0 7 6 3 13 -6 9
-4 9 8 -1 14 -11 18 -10 27 6 6 11 7 23 3 27 -4 5 -1 5 6 1 7 -4 10 -11 7 -16
-3 -4 1 -10 9 -13 9 -4 12 0 9 13 -3 10 1 21 8 26 9 5 11 2 6 -10 -5 -13 -3
-15 11 -7 9 5 22 11 27 13 6 1 9 9 9 16 -2 10 1 10 12 1 8 -6 11 -16 7 -22 -3
-6 -1 -7 5 -3 9 5 9 13 2 26 -12 22 0 33 20 19 19 -11 33 -12 25 0 -3 5 4 12
14 16 13 4 18 12 15 23 -3 9 1 6 9 -7 12 -20 15 -21 20 -7 4 10 3 15 -3 11 -6
-3 -10 -4 -10 -1 0 3 9 10 19 16 14 7 22 7 27 -2 5 -7 3 -8 -6 -3 -9 6 -11 4
-6 -4 6 -9 12 -9 25 3 10 9 21 13 26 9 4 -5 5 -2 1 5 -4 7 -11 10 -16 7 -5 -3
-11 -1 -15 5 -4 6 -11 8 -16 5 -15 -10 -10 1 7 15 12 11 15 11 12 0 -4 -18 51
-19 65 0 11 13 10 13 -7 0 -17 -13 -19 -13 -14 0 2 8 15 16 27 18 17 3 20 7
11 17 -8 10 -8 15 1 21 7 4 9 3 6 -2 -3 -6 3 -15 13 -22 16 -10 18 -9 14 3 -3
7 -1 22 6 32 10 16 10 15 6 -7 -3 -14 -3 -19 0 -12 3 6 11 9 16 6 7 -5 8 -2 3
6 -6 10 -3 12 11 7 14 -5 12 -2 -6 12 -22 17 -22 19 -5 18 11 -1 24 -6 28 -12
5 -6 7 -1 4 12 -4 19 -2 21 18 13 20 -8 23 -6 21 15 -3 23 8 27 32 11 11 -7
12 -4 3 12 -16 30 -14 39 4 16 13 -16 14 -16 9 -1 -4 12 -1 17 11 17 10 0 14
-5 9 -12 -4 -8 -3 -10 2 -5 9 9 10 13 13 43 0 8 6 12 11 9 6 -3 10 -1 10 5 0
6 5 8 13 4 9 -6 9 -4 -1 8 -11 14 -10 18 8 28 11 6 18 15 15 21 -4 5 -11 6
-17 3 -7 -5 -8 -2 -3 6 6 10 12 8 26 -8 13 -17 18 -19 23 -7 3 8 1 17 -5 21
-6 4 -6 11 2 20 6 8 8 14 4 14 -4 0 -2 7 5 15 9 11 16 12 25 5 10 -8 15 -8 21
1 4 8 3 9 -4 5 -17 -11 -15 9 3 24 12 10 13 16 3 28 -7 9 -8 13 -3 10 6 -4 17
2 24 14 7 11 8 18 3 14 -5 -3 -9 1 -9 9 0 11 5 11 19 4 17 -9 18 -8 10 8 -5
10 -7 24 -4 32 3 9 0 11 -8 6 -8 -5 -11 -4 -6 3 4 6 13 9 20 6 9 -3 13 1 13
13 -1 12 4 17 16 17 14 -2 15 1 6 12 -6 8 -15 12 -18 9 -4 -2 -8 2 -8 10 0 11
5 12 21 3 l21 -11 -20 23 -20 23 24 -13 c13 -6 21 -7 17 -2 -3 6 -3 12 1 15 5
2 2 2 -4 1 -7 -2 -13 1 -13 7 0 6 -4 8 -10 4 -5 -3 -3 7 5 22 13 24 12 29 -2
45 -12 13 -19 15 -29 7 -10 -8 -17 -3 -28 20 -20 37 -32 45 -40 26 -3 -8 0
-17 6 -21 7 -4 8 -3 4 4 -4 7 -3 12 2 12 5 0 12 -9 15 -20 4 -17 3 -18 -16 -8
-12 7 -29 11 -37 10 -13 -3 -13 -2 0 7 13 9 13 12 1 23 -10 10 -12 10 -7 1 5
-9 -1 -13 -21 -13 -22 0 -25 2 -13 10 8 5 10 10 4 10 -5 0 -15 -5 -22 -12 -9
-9 -12 -9 -12 3 0 12 -2 12 -10 -1 -6 -10 -10 -11 -10 -2 0 6 -5 12 -11 12 -5
0 -7 -6 -3 -12 4 -7 -5 -2 -21 12 l-28 25 18 -30 c10 -16 13 -25 6 -18 -8 6
-20 9 -27 6 -8 -3 -14 0 -14 7 0 6 6 8 13 4 6 -4 9 -3 4 1 -4 5 -16 9 -27 10
-16 1 -18 -1 -7 -14 11 -14 9 -14 -13 0 -30 19 -80 7 -81 -19 0 -12 -2 -13 -6
-4 -3 7 3 22 13 34 18 19 18 19 -18 -2 -36 -21 -65 -20 -52 2 4 7 2 8 -5 4 -6
-4 -9 -12 -6 -17 4 -5 1 -9 -4 -9 -6 0 -11 5 -11 11 0 5 -5 7 -10 4 -6 -4 -8
-10 -5 -15 3 -5 1 -11 -4 -15 -6 -3 -8 3 -6 15 2 11 -1 23 -7 26 -7 4 -8 2 -4
-4 4 -7 2 -12 -4 -12 -6 0 -9 -4 -5 -9 3 -5 1 -13 -5 -16 -6 -4 -10 -3 -9 2 3
18 -1 34 -8 30 -5 -3 -15 2 -23 11 -13 14 -12 15 2 10 20 -8 18 20 -3 33 -10
6 -8 9 11 9 24 1 24 1 5 13 -11 7 -21 19 -23 27 -1 10 2 9 13 -4 8 -11 15 -15
15 -9 0 7 -5 15 -10 18 -6 4 -8 10 -6 13 2 4 -10 7 -28 6 -21 -1 -33 3 -33 12
0 7 5 10 11 6 17 -10 37 -11 30 -1 -3 5 -10 7 -15 4 -5 -4 -9 -1 -9 5 0 11
-52 5 -79 -9 -9 -6 -24 -3 -40 7 l-26 16 20 -24 c11 -13 14 -20 6 -15 -8 4
-17 2 -23 -6 -8 -11 -9 -10 -4 4 3 9 1 17 -5 17 -6 0 -7 5 -4 10 3 6 4 10 1
10 -3 0 -7 -2 -7 -5z m128 -20 c0 -8 -4 -12 -9 -9 -5 3 -6 10 -3 15 9 13 12
11 12 -6z m-212 -36 c11 -16 1 -19 -13 -3 -7 8 -8 14 -3 14 5 0 13 -5 16 -11z
m-395 -119 c0 -5 -5 -10 -11 -10 -5 0 -7 5 -4 10 3 6 8 10 11 10 2 0 4 -4 4
-10z m10 -24 c0 -2 -7 -7 -16 -10 -8 -3 -12 -2 -9 4 6 10 25 14 25 6z m1249
-30 c9 -11 9 -16 -1 -22 -7 -4 -10 -4 -6 1 4 4 3 14 -3 22 -6 7 -9 13 -6 13 2
0 10 -6 16 -14z m-69 -292 c0 -8 -19 -13 -24 -6 -3 5 1 9 9 9 8 0 15 -2 15 -3z
m-155 -184 c3 -5 1 -10 -4 -10 -6 0 -11 5 -11 10 0 6 2 10 4 10 3 0 8 -4 11
-10z m-2115 -165 c0 -5 -5 -3 -10 5 -8 12 -12 12 -18 2 -7 -10 -11 -10 -22 3
-11 13 -10 15 3 10 8 -4 18 -1 22 5 6 9 10 9 16 -1 5 -8 9 -18 9 -24z m-286
-86 c-3 -5 -10 -7 -15 -3 -5 3 -7 10 -3 15 3 5 10 7 15 3 5 -3 7 -10 3 -15z
m1930 -77 c3 -5 -1 -9 -9 -9 -8 0 -12 4 -9 9 3 4 7 8 9 8 2 0 6 -4 9 -8z
m-704 -152 c0 -5 -5 -10 -11 -10 -5 0 -7 5 -4 10 3 6 8 10 11 10 2 0 4 -4 4
-10z m-75 -22 c5 4 5 1 1 -6 -6 -10 -11 -10 -22 -1 -8 6 -14 14 -14 16 0 3 6
0 13 -6 8 -6 18 -7 22 -3z m-1520 -47 c3 -5 2 -12 -3 -15 -5 -3 -9 1 -9 9 0
17 3 19 12 6z m-148 -142 c-9 -6 -14 -15 -11 -21 4 -7 2 -8 -5 -4 -14 9 3 36
23 36 6 0 3 -5 -7 -11z m-254 -374 c-3 -9 -8 -14 -10 -11 -3 3 -2 9 2 15 9 16
15 13 8 -4z m1992 -5 c17 -19 17 -20 1 -20 -9 0 -14 5 -11 10 3 6 1 10 -4 10
-6 0 -11 5 -11 10 0 14 5 13 25 -10z m-2024 -127 c13 -16 12 -17 -3 -4 -10 7
-18 15 -18 17 0 8 8 3 21 -13z m2369 -178 c0 -10 -40 9 -44 21 -4 11 0 11 19
-2 14 -9 25 -18 25 -19z m-2325 15 c-3 -5 -1 -10 4 -10 6 0 11 -10 11 -22 0
-23 -1 -23 -14 2 -12 23 -12 40 0 40 3 0 2 -4 -1 -10z m168 -193 c6 3 7 1 3
-5 -5 -8 -16 -5 -37 10 -16 12 -29 26 -29 30 0 5 12 -2 27 -16 15 -14 31 -22
36 -19z m2403 -9 c3 -4 -1 -5 -10 -4 -8 1 -18 5 -22 8 -3 4 1 5 10 4 8 -1 18
-5 22 -8z m64 -38 c0 -5 -5 -10 -11 -10 -5 0 -7 5 -4 10 3 6 8 10 11 10 2 0 4
-4 4 -10z m47 -52 c-3 -8 -6 -5 -6 6 -1 11 2 17 5 13 3 -3 4 -12 1 -19z m238
-158 c-3 -5 -12 -10 -18 -10 -7 0 -6 4 3 10 19 12 23 12 15 0z m297 -192 c-8
-8 -9 -4 -5 13 4 13 8 18 11 10 2 -7 -1 -18 -6 -23z m-2205 -120 c2 -17 0 -19
-7 -8 -5 8 -6 18 -4 22 8 12 10 10 11 -14z m2738 -27 c3 -5 2 -12 -3 -15 -5
-3 -9 1 -9 9 0 17 3 19 12 6z m288 -91 c4 0 5 5 1 12 -5 7 -3 8 5 3 9 -5 10
-10 2 -18 -8 -8 -15 -6 -26 6 -8 9 -10 12 -3 7 7 -6 16 -10 21 -10z m272 -128
c-3 -3 -11 0 -18 7 -9 10 -8 11 6 5 10 -3 15 -9 12 -12z m120 -32 c3 -5 1 -10
-4 -10 -6 0 -11 5 -11 10 0 6 2 10 4 10 3 0 8 -4 11 -10z m85 -34 c0 -3 -4 -8
-10 -11 -5 -3 -10 -1 -10 4 0 6 5 11 10 11 6 0 10 -2 10 -4z m-3420 -247 c0
-4 -6 -9 -13 -12 -8 -3 -14 0 -14 7 0 7 6 13 14 13 7 0 13 -4 13 -8z m3877
-34 c0 -8 -4 -12 -9 -9 -5 3 -6 10 -3 15 9 13 12 11 12 -6z m-3857 -66 c0 -5
-8 -9 -17 -9 -15 0 -16 2 -3 10 10 6 11 10 3 10 -7 0 -13 5 -13 11 0 8 5 8 15
-1 8 -7 15 -16 15 -21z m17 -84 c0 -8 -4 -12 -9 -9 -5 3 -6 10 -3 15 9 13 12
11 12 -6z m4356 -350 c-3 -9 -8 -14 -10 -11 -3 3 -2 9 2 15 9 16 15 13 8 -4z
m32 -45 c3 -6 -1 -7 -9 -4 -18 7 -21 14 -7 14 6 0 13 -4 16 -10z m-4629 -52
c-18 -26 -22 -17 -5 14 6 11 13 17 16 15 3 -3 -2 -16 -11 -29z m4754 -152 c0
-2 -7 -7 -16 -10 -8 -3 -12 -2 -9 4 6 10 25 14 25 6z m-4392 -172 c1 0 -9 -6
-23 -12 -15 -7 -25 -8 -25 -2 0 6 7 10 16 10 8 0 12 5 9 10 -4 6 -11 7 -17 4
-7 -4 -8 -2 -4 5 6 9 12 9 24 -1 10 -7 18 -13 20 -14z m4472 -28 c-7 -7 -13
-7 -20 0 -6 6 -3 10 10 10 13 0 16 -4 10 -10z m-4674 -109 c23 8 16 -5 -8 -18
-13 -6 -20 -8 -16 -4 4 5 2 15 -4 24 -10 13 -10 14 1 4 7 -6 20 -9 27 -6z
m1224 -228 c0 -5 -4 -9 -8 -9 -5 0 -9 7 -9 15 0 8 4 12 9 9 4 -3 8 -9 8 -15z
m-1390 -4 c-7 -9 -15 -13 -17 -11 -7 7 7 26 19 26 6 0 6 -6 -2 -15z m262 -22
c-6 -2 -9 -10 -6 -15 4 -7 2 -8 -5 -4 -13 9 -5 26 12 25 9 0 8 -2 -1 -6z m486
-98 c-3 -3 -9 2 -12 12 -6 14 -5 15 5 6 7 -7 10 -15 7 -18z m-848 11 c0 -3 -4
-8 -10 -11 -5 -3 -10 -1 -10 4 0 6 5 11 10 11 6 0 10 -2 10 -4z m-50 -46 c0
-5 -2 -10 -4 -10 -3 0 -8 5 -11 10 -3 6 -1 10 4 10 6 0 11 -4 11 -10z m1660
-40 c0 -5 -2 -10 -4 -10 -3 0 -8 5 -11 10 -3 6 -1 10 4 10 6 0 11 -4 11 -10z
m-840 -40 c0 -5 -5 -10 -11 -10 -5 0 -7 5 -4 10 3 6 8 10 11 10 2 0 4 -4 4
-10z m877 -12 c-3 -8 -6 -5 -6 6 -1 11 2 17 5 13 3 -3 4 -12 1 -19z m-1477
-22 c0 -2 -7 -7 -16 -10 -8 -3 -12 -2 -9 4 6 10 25 14 25 6z m-396 -37 c-3 -5
-10 -7 -15 -3 -5 3 -7 10 -3 15 3 5 10 7 15 3 5 -3 7 -10 3 -15z m351 -89 c3
-5 1 -10 -4 -10 -6 0 -11 5 -11 10 0 6 2 10 4 10 3 0 8 -4 11 -10z m1 -39 c0
-15 -3 -17 -13 -9 -7 6 -10 14 -7 19 9 15 20 10 20 -10z m405 -74 c-10 -9 -11
-8 -5 6 3 10 9 15 12 12 3 -3 0 -11 -7 -18z m1234 14 c3 -5 2 -12 -3 -15 -5
-3 -9 1 -9 9 0 17 3 19 12 6z m8 -103 c-6 -7 -9 -21 -8 -31 2 -9 0 -15 -5 -12
-13 8 1 55 17 55 3 0 1 -6 -4 -12z m3569 -20 c-7 -7 -12 -8 -12 -2 0 14 12 26
19 19 2 -3 -1 -11 -7 -17z m-60 -20 c-7 -7 -12 -8 -12 -2 0 14 12 26 19 19 2
-3 -1 -11 -7 -17z m377 -32 c-3 -3 -11 5 -18 17 -13 21 -12 21 5 5 10 -10 16
-20 13 -22z m111 -196 c0 -5 5 -9 11 -7 6 1 13 -5 14 -14 2 -9 -4 -16 -11 -16
-8 0 -12 3 -9 5 3 3 -2 14 -12 24 -9 11 -11 18 -5 18 7 0 12 -4 12 -10z
m-3926 -88 c3 -5 -1 -9 -9 -9 -8 0 -15 4 -15 9 0 4 4 8 9 8 6 0 12 -4 15 -8z
m3970 -96 c-1 -17 -3 -33 -4 -36 -1 -3 -2 -8 -1 -12 0 -4 -6 -5 -15 -1 -13 5
-13 7 -2 14 7 5 9 9 4 9 -6 0 -5 5 2 12 7 7 8 17 2 28 -6 11 -5 17 3 17 8 0
12 -12 11 -31z m-44 -147 c0 -5 -4 -9 -8 -9 -5 0 -9 7 -9 15 0 8 4 12 9 9 4
-3 8 -9 8 -15z m-3740 -180 c0 -5 4 -8 9 -5 11 7 9 -21 -2 -29 -4 -3 -5 -2 -2
2 3 3 -2 15 -12 25 -9 11 -11 18 -5 18 7 0 12 -5 12 -11z m3535 -177 c-3 -3
-11 0 -18 7 -9 10 -8 11 6 5 10 -3 15 -9 12 -12z m-4280 -291 c-3 -6 -11 -8
-17 -5 -6 4 -5 9 3 15 16 10 23 4 14 -10z m3200 -51 c3 -5 1 -10 -4 -10 -6 0
-11 5 -11 10 0 6 2 10 4 10 3 0 8 -4 11 -10z m228 -44 c9 1 15 -1 12 -6 -8
-13 -38 -5 -43 11 -2 9 -1 10 5 3 4 -6 16 -10 26 -8z m-238 -16 c3 -5 -1 -10
-10 -10 -9 0 -13 5 -10 10 3 6 8 10 10 10 2 0 7 -4 10 -10z m290 1 c-9 -8 -36
-10 -30 -2 2 4 11 8 20 8 8 0 13 -3 10 -6z m-3520 -59 c-18 -13 -11 -37 10
-34 16 2 17 1 5 -7 -25 -17 -42 9 -31 47 1 1 7 2 14 2 8 0 8 -3 2 -8z m3240
-42 c3 -5 1 -10 -4 -10 -6 0 -11 5 -11 10 0 6 2 10 4 10 3 0 8 -4 11 -10z
m-2961 -25 c3 -8 1 -15 -4 -15 -6 0 -10 7 -10 15 0 8 2 15 4 15 2 0 6 -7 10
-15z m701 -3 c-3 -3 -11 0 -18 7 -9 10 -8 11 6 5 10 -3 15 -9 12 -12z m550 8
c-3 -5 -12 -10 -18 -10 -7 0 -6 4 3 10 19 12 23 12 15 0z m-861 -16 c3 -8 2
-12 -4 -9 -6 3 -10 10 -10 16 0 14 7 11 14 -7z m2559 -6 c-9 -10 -19 -15 -22
-12 -3 4 0 9 7 11 6 3 10 8 8 12 -3 4 1 8 9 8 13 0 12 -4 -2 -19z m-2523 -3
c0 -8 -2 -15 -4 -15 -2 0 -6 7 -10 15 -3 8 -1 15 4 15 6 0 10 -7 10 -15z m207
-7 c-3 -8 -6 -5 -6 6 -1 11 2 17 5 13 3 -3 4 -12 1 -19z m287 11 c4 6 12 11
19 11 6 0 2 -6 -8 -14 -21 -15 -35 -12 -35 7 0 8 3 8 9 -2 6 -9 11 -10 15 -2z
m842 2 c-4 -5 0 -12 6 -14 8 -3 6 -6 -4 -6 -18 -1 -24 10 -11 22 9 10 15 8 9
-2z m37 -6 c-3 -9 -8 -14 -10 -11 -3 3 -2 9 2 15 9 16 15 13 8 -4z m-413 -3
c0 -5 -7 -9 -15 -9 -8 0 -12 4 -9 9 3 4 9 8 15 8 5 0 9 -4 9 -8z m984 -8 c3
-8 2 -12 -4 -9 -6 3 -10 10 -10 16 0 14 7 11 14 -7z m256 2 c0 -3 -4 -8 -10
-11 -5 -3 -10 -1 -10 4 0 6 5 11 10 11 6 0 10 -2 10 -4z m100 -8 c0 -10 -17
-10 -24 0 -3 5 1 9 9 9 8 0 15 -4 15 -9z m50 2 c0 -5 -2 -10 -4 -10 -3 0 -8 5
-11 10 -3 6 -1 10 4 10 6 0 11 -4 11 -10z"/>
<path d="M2775 6860 c-3 -5 -1 -10 4 -10 6 0 11 5 11 10 0 6 -2 10 -4 10 -3 0
-8 -4 -11 -10z"/>
<path d="M3280 6760 c-8 -5 -12 -12 -9 -15 4 -3 12 1 19 10 14 17 11 19 -10 5z"/>
<path d="M3676 6722 c-2 -4 -1 -14 4 -22 7 -11 9 -9 7 8 -1 24 -3 26 -11 14z"/>
<path d="M3736 6631 c-4 -5 3 -7 14 -4 23 6 26 13 6 13 -8 0 -17 -4 -20 -9z"/>
<path d="M2230 6615 c-14 -8 -20 -14 -14 -15 5 0 19 7 30 15 24 18 16 19 -16
0z"/>
<path d="M3696 6482 c-2 -4 4 -8 14 -8 10 0 16 4 14 8 -3 4 -9 8 -14 8 -5 0
-11 -4 -14 -8z"/>
<path d="M3609 6335 c-1 -3 -2 -8 -3 -12 -1 -5 -5 -14 -10 -21 -7 -11 -4 -11
12 -1 11 7 18 19 15 26 -5 13 -12 17 -14 8z"/>
<path d="M3552 6241 c-11 -7 -11 -9 0 -14 9 -3 15 1 15 9 0 8 -1 14 -1 14 -1
0 -7 -4 -14 -9z"/>
<path d="M1835 6200 c-3 -5 -2 -10 4 -10 5 0 13 5 16 10 3 6 2 10 -4 10 -5 0
-13 -4 -16 -10z"/>
<path d="M1410 6079 c0 -5 5 -7 10 -4 6 3 10 8 10 11 0 2 -4 4 -10 4 -5 0 -10
-5 -10 -11z"/>
<path d="M1207 6039 c7 -7 15 -10 18 -7 3 3 -2 9 -12 12 -14 6 -15 5 -6 -5z"/>
<path d="M991 5914 c0 -11 3 -14 6 -6 3 7 2 16 -1 19 -3 4 -6 -2 -5 -13z"/>
<path d="M3060 5896 c0 -2 8 -10 18 -17 15 -13 16 -12 3 4 -13 16 -21 21 -21
13z"/>
<path d="M910 5880 c0 -5 5 -10 11 -10 5 0 7 5 4 10 -3 6 -8 10 -11 10 -2 0
-4 -4 -4 -10z"/>
<path d="M2650 5739 c0 -5 5 -7 10 -4 6 3 10 8 10 11 0 2 -4 4 -10 4 -5 0 -10
-5 -10 -11z"/>
<path d="M2454 5719 c-4 -7 -3 -9 4 -5 5 3 13 0 15 -6 4 -9 6 -10 6 -1 1 17
-16 25 -25 12z"/>
<path d="M2233 5575 c0 -8 4 -12 9 -9 4 3 8 9 8 15 0 5 -4 9 -8 9 -5 0 -9 -7
-9 -15z"/>
<path d="M2245 5540 c-3 -5 -2 -10 4 -10 5 0 13 5 16 10 3 6 2 10 -4 10 -5 0
-13 -4 -16 -10z"/>
<path d="M416 5318 c3 -5 10 -6 15 -3 13 9 11 12 -6 12 -8 0 -12 -4 -9 -9z"/>
<path d="M2256 5235 c4 -8 8 -15 10 -15 2 0 4 7 4 15 0 8 -4 15 -10 15 -5 0
-7 -7 -4 -15z"/>
<path d="M2272 5211 c-11 -7 -11 -9 0 -14 9 -3 15 1 15 9 0 8 -1 14 -1 14 -1
0 -7 -4 -14 -9z"/>
<path d="M213 5085 c0 -8 4 -12 9 -9 5 3 6 10 3 15 -9 13 -12 11 -12 -6z"/>
<path d="M2350 5096 c0 -2 8 -10 18 -17 15 -13 16 -12 3 4 -13 16 -21 21 -21
13z"/>
<path d="M2366 5052 c-3 -5 1 -15 8 -21 11 -10 14 -9 12 3 -3 21 -13 29 -20
18z"/>
<path d="M237 4971 c23 -22 39 -28 28 -11 -3 5 -16 15 -28 21 l-22 11 22 -21z"/>
<path d="M2468 4963 c7 -3 16 -2 19 1 4 3 -2 6 -13 5 -11 0 -14 -3 -6 -6z"/>
<path d="M2540 4926 c0 -2 8 -10 18 -17 15 -13 16 -12 3 4 -13 16 -21 21 -21
13z"/>
<path d="M273 4886 c0 -7 6 -13 14 -13 7 0 13 4 13 8 0 4 -6 9 -13 12 -8 3
-14 0 -14 -7z"/>
<path d="M2690 4812 c0 -12 22 -32 35 -32 5 0 2 5 -8 11 -9 6 -15 14 -12 20 4
5 1 9 -4 9 -6 0 -11 -4 -11 -8z"/>
<path d="M2996 4593 c-6 -14 -5 -15 5 -6 7 7 10 15 7 18 -3 3 -9 -2 -12 -12z"/>
<path d="M818 4581 c4 -10 7 -11 10 -3 2 7 8 10 12 7 5 -3 11 -2 14 3 2 4 -6
8 -19 8 -16 0 -21 -4 -17 -15z"/>
<path d="M3115 4501 c-3 -5 -2 -12 3 -15 5 -3 9 1 9 9 0 17 -3 19 -12 6z"/>
<path d="M1156 4441 c-4 -5 -2 -12 3 -15 5 -4 12 -2 15 3 4 5 2 12 -3 15 -5 4
-12 2 -15 -3z"/>
<path d="M3661 4193 c7 -12 15 -20 18 -17 3 2 -3 12 -13 22 -17 16 -18 16 -5
-5z"/>
<path d="M3690 4179 c0 -5 5 -7 10 -4 6 3 10 8 10 11 0 2 -4 4 -10 4 -5 0 -10
-5 -10 -11z"/>
<path d="M1293 4167 c0 -8 6 -14 14 -14 9 0 10 4 2 14 -6 7 -12 13 -14 13 -1
0 -2 -6 -2 -13z"/>
<path d="M3840 4140 c-10 -7 -11 -10 -2 -10 22 0 27 -2 39 -11 7 -7 14 -6 19
3 4 7 3 10 -1 5 -5 -4 -16 -1 -24 7 -11 10 -21 12 -31 6z"/>
<path d="M4150 4060 c-9 -6 -10 -10 -3 -10 6 0 15 5 18 10 8 12 4 12 -15 0z"/>
<path d="M1330 4030 c0 -5 5 -10 11 -10 5 0 7 5 4 10 -3 6 -8 10 -11 10 -2 0
-4 -4 -4 -10z"/>
<path d="M1355 3760 c-3 -5 -1 -10 4 -10 6 0 11 5 11 10 0 6 -2 10 -4 10 -3 0
-8 -4 -11 -10z"/>
<path d="M1380 3730 c-9 -6 -10 -10 -3 -10 6 0 15 5 18 10 8 12 4 12 -15 0z"/>
<path d="M1375 3694 c4 -11 8 -24 8 -31 0 -7 3 -10 7 -8 12 7 4 49 -10 53 -9
3 -11 -1 -5 -14z"/>
<path d="M5375 3450 c3 -5 8 -10 11 -10 2 0 4 5 4 10 0 6 -5 10 -11 10 -5 0
-7 -4 -4 -10z"/>
<path d="M5465 3370 c-3 -6 1 -7 9 -4 18 7 21 14 7 14 -6 0 -13 -4 -16 -10z"/>
<path d="M1456 3282 c-3 -5 1 -15 8 -21 11 -10 14 -9 12 3 -3 21 -13 29 -20
18z"/>
<path d="M1490 3180 c0 -5 5 -10 11 -10 5 0 7 5 4 10 -3 6 -8 10 -11 10 -2 0
-4 -4 -4 -10z"/>
<path d="M5742 3091 c12 -19 28 -19 28 0 0 6 -4 7 -10 4 -5 -3 -10 -1 -10 4 0
6 -5 11 -10 11 -6 0 -5 -8 2 -19z"/>
<path d="M1330 3005 c-7 -9 -11 -17 -9 -20 3 -2 10 5 17 15 14 24 10 26 -8 5z"/>
<path d="M1125 2840 c-3 -5 -1 -10 5 -10 6 0 8 -5 4 -12 -4 -7 -3 -8 4 -4 6 4
9 13 5 21 -6 18 -10 19 -18 5z"/>
<path d="M5955 2801 c-3 -5 -2 -12 3 -15 5 -3 9 1 9 9 0 17 -3 19 -12 6z"/>
<path d="M1006 2658 c3 -5 10 -6 15 -3 13 9 11 12 -6 12 -8 0 -12 -4 -9 -9z"/>
<path d="M6015 2662 c6 -4 10 -13 10 -21 0 -8 6 -15 13 -17 7 -1 8 0 2 3 -5 2
-10 9 -10 14 0 6 6 7 13 3 8 -5 8 -2 -2 9 -7 9 -19 17 -25 17 -7 0 -7 -3 -1
-8z"/>
<path d="M820 2329 c0 -5 5 -7 10 -4 6 3 10 8 10 11 0 2 -4 4 -10 4 -5 0 -10
-5 -10 -11z"/>
<path d="M1281 2291 c-7 -5 -9 -11 -5 -14 5 -3 15 1 22 9 14 16 5 18 -17 5z"/>
<path d="M770 2279 c0 -5 5 -7 10 -4 6 3 10 8 10 11 0 2 -4 4 -10 4 -5 0 -10
-5 -10 -11z"/>
<path d="M2521 2244 c0 -11 3 -14 6 -6 3 7 2 16 -1 19 -3 4 -6 -2 -5 -13z"/>
<path d="M680 2215 c0 -7 30 -13 34 -7 3 4 -4 9 -15 9 -10 1 -19 0 -19 -2z"/>
<path d="M656 2173 c-6 -14 -5 -15 5 -6 7 7 10 15 7 18 -3 3 -9 -2 -12 -12z"/>
<path d="M2035 2160 c-3 -5 -1 -10 4 -10 6 0 11 5 11 10 0 6 -2 10 -4 10 -3 0
-8 -4 -11 -10z"/>
<path d="M1145 2109 c-11 -16 -1 -19 13 -3 7 8 8 14 3 14 -5 0 -13 -5 -16 -11z"/>
<path d="M1990 2116 c0 -2 8 -10 18 -17 15 -13 16 -12 3 4 -13 16 -21 21 -21
13z"/>
<path d="M627 2073 c3 -7 8 -13 12 -13 4 0 8 6 8 13 0 8 -6 14 -13 14 -7 0
-10 -6 -7 -14z"/>
<path d="M1377 2069 c-4 -16 -3 -18 9 -8 7 6 11 15 8 20 -8 13 -11 11 -17 -12z"/>
<path d="M630 2040 c0 -5 5 -10 11 -10 5 0 7 5 4 10 -3 6 -8 10 -11 10 -2 0
-4 -4 -4 -10z"/>
<path d="M1941 2027 c-7 -10 -8 -16 -3 -13 6 3 13 1 15 -4 3 -6 4 -5 3 2 -2 7
4 18 12 24 13 9 13 11 0 11 -9 0 -21 -9 -27 -20z"/>
<path d="M615 2011 c-3 -5 -2 -12 3 -15 5 -3 9 1 9 9 0 17 -3 19 -12 6z"/>
<path d="M6202 1920 c7 -10 14 -18 15 -16 6 6 -9 36 -18 36 -5 0 -4 -9 3 -20z"/>
<path d="M915 1921 c-3 -5 -2 -12 3 -15 5 -3 9 1 9 9 0 17 -3 19 -12 6z"/>
<path d="M2753 1904 c0 -10 5 -10 20 -3 17 10 18 8 12 -13 -5 -20 -5 -21 5 -5
7 10 9 21 6 25 -12 11 -43 8 -43 -4z"/>
<path d="M6210 1815 c-7 -9 -11 -17 -9 -20 3 -2 10 5 17 15 14 24 10 26 -8 5z"/>
<path d="M2826 1802 c-2 -4 -1 -14 4 -22 7 -11 9 -9 7 8 -1 24 -3 26 -11 14z"/>
<path d="M1572 1641 c-11 -7 -11 -9 0 -14 9 -3 15 1 15 9 0 8 -1 14 -1 14 -1
0 -7 -4 -14 -9z"/>
<path d="M6200 1641 c0 -6 4 -12 10 -16 5 -3 7 -12 4 -19 -3 -8 -2 -16 3 -19
4 -3 9 6 9 19 1 13 -2 24 -8 24 -5 0 -6 5 -3 10 3 6 1 10 -4 10 -6 0 -11 -4
-11 -9z"/>
<path d="M1427 1571 c-10 -14 -10 -14 4 -4 9 7 18 10 21 7 3 -3 8 -1 12 4 9
16 -24 9 -37 -7z"/>
<path d="M6305 1550 c-3 -6 1 -7 9 -4 18 7 21 14 7 14 -6 0 -13 -4 -16 -10z"/>
<path d="M2875 1429 c-6 -8 -4 -10 5 -4 10 6 12 4 6 -11 -6 -15 -5 -17 5 -6 9
9 10 15 2 23 -8 8 -13 7 -18 -2z"/>
<path d="M2890 1286 c0 -2 7 -7 16 -10 8 -3 12 -2 9 4 -6 10 -25 14 -25 6z"/>
<path d="M2999 1053 c-13 -16 -12 -17 4 -4 16 13 21 21 13 21 -2 0 -10 -8 -17
-17z"/>
<path d="M3010 1016 c0 -2 7 -7 16 -10 8 -3 12 -2 9 4 -6 10 -25 14 -25 6z"/>
<path d="M3054 934 c8 -17 23 -35 33 -38 17 -7 17 -6 0 11 -10 10 -25 27 -33
38 -13 18 -13 16 0 -11z"/>
<path d="M6776 767 c3 -10 9 -15 12 -12 3 3 0 11 -7 18 -10 9 -11 8 -5 -6z"/>
<path d="M6743 725 c0 -8 4 -12 9 -9 5 3 6 10 3 15 -9 13 -12 11 -12 -6z"/>
<path d="M3117 595 c3 -8 9 -12 14 -9 12 7 11 11 -5 17 -10 4 -13 1 -9 -8z"/>
<path d="M2605 590 c-3 -6 1 -7 9 -4 18 7 21 14 7 14 -6 0 -13 -4 -16 -10z"/>
<path d="M6520 490 c-19 -16 -31 -30 -27 -30 5 0 15 6 23 14 7 8 22 13 31 12
10 -2 12 -1 5 1 -10 4 -10 8 -1 19 18 22 7 16 -31 -16z"/>
<path d="M6436 393 c-6 -14 -5 -15 5 -6 7 7 10 15 7 18 -3 3 -9 -2 -12 -12z"/>
<path d="M2710 101 c0 -5 5 -13 10 -16 6 -3 10 -2 10 4 0 5 -4 13 -10 16 -5 3
-10 2 -10 -4z"/>
<path d="M3923 93 c-23 -8 -14 -18 17 -19 17 -1 30 3 30 9 0 6 -3 7 -7 4 -3
-4 -11 -3 -17 2 -6 4 -17 6 -23 4z"/>
<path d="M4307 93 c-4 -3 -7 -11 -7 -17 0 -6 5 -5 12 2 6 6 9 14 7 17 -3 3 -9
2 -12 -2z"/>
<path d="M4885 90 c-3 -5 -2 -10 4 -10 6 0 8 -8 5 -17 -5 -14 -4 -15 4 -4 6 8
8 20 5 28 -6 16 -10 16 -18 3z"/>
<path d="M3316 81 c-3 -4 6 -7 19 -7 14 0 22 2 19 5 -8 8 -34 10 -38 2z"/>
<path d="M3476 81 c-3 -4 6 -7 19 -7 14 0 22 2 19 5 -8 8 -34 10 -38 2z"/>
<path d="M3717 76 c-16 -12 -16 -14 -2 -20 11 -4 14 -2 9 6 -5 7 -2 9 9 5 11
-4 14 -2 10 9 -3 7 -6 14 -7 14 0 0 -9 -7 -19 -14z"/>
<path d="M3755 80 c3 -5 8 -10 11 -10 2 0 4 5 4 10 0 6 -5 10 -11 10 -5 0 -7
-4 -4 -10z"/>
<path d="M3890 76 c0 -8 4 -17 9 -20 5 -4 7 3 4 14 -6 23 -13 26 -13 6z"/>
<path d="M4077 83 c-4 -3 -7 -11 -7 -17 0 -6 5 -5 12 2 6 6 9 14 7 17 -3 3 -9
2 -12 -2z"/>
<path d="M4137 75 c-4 -8 -3 -16 1 -19 4 -3 9 4 9 15 2 23 -3 25 -10 4z"/>
<path d="M4230 78 c0 -3 9 -6 20 -5 11 1 20 5 20 9 0 3 -9 6 -20 5 -11 -1 -20
-5 -20 -9z"/>
<path d="M4577 73 c-4 -3 -7 -11 -7 -17 0 -6 5 -5 12 2 6 6 9 14 7 17 -3 3 -9
2 -12 -2z"/>
<path d="M4655 69 c-4 -6 -4 -13 -1 -16 3 -4 6 -1 6 7 0 10 4 10 18 -1 15 -13
16 -12 3 4 -16 20 -18 20 -26 6z"/>
<path d="M4777 73 c-4 -3 -7 -11 -7 -17 0 -6 5 -5 12 2 6 6 9 14 7 17 -3 3 -9
2 -12 -2z"/>
<path d="M5090 70 c0 -5 5 -10 11 -10 5 0 7 5 4 10 -3 6 -8 10 -11 10 -2 0 -4
-4 -4 -10z"/>
<path d="M5315 49 c-4 -6 -5 -12 -2 -15 2 -3 7 2 10 11 7 17 1 20 -8 4z"/>
</g>
</svg>
