<svg width="60" height="60" viewBox="0 0 60 60" fill="none" xmlns="http://www.w3.org/2000/svg">
<path d="M30 5.625C16.5384 5.625 5.625 16.5384 5.625 30C5.625 41.5097 13.605 51.15 24.3328 53.7056C23.7778 53.5734 23.2275 53.4253 22.6875 53.2566V47.6719C22.6875 47.6719 21.7734 47.9766 20.5547 47.9766C17.145 47.9766 15.7284 44.9344 15.375 43.4062C15.1603 42.4753 14.5997 41.5931 13.9978 41.0541C13.2787 40.4128 12.9422 40.4109 12.9375 40.1916C12.9281 39.7312 13.5544 39.75 13.8516 39.75C15.375 39.75 16.53 41.3709 17.0663 42.2091C18.3947 44.2781 19.8206 44.625 20.5547 44.625C21.4687 44.625 22.2581 44.4881 22.8019 44.2256C23.0531 42.4556 23.8406 40.8787 25.125 39.75C19.4091 38.6072 15.375 35.3288 15.375 30C15.375 27.255 16.4766 24.7322 18.3122 22.695C18.1247 22.1634 17.8125 21.0881 17.8125 19.3359C17.8125 18.1781 17.8931 16.7569 18.4219 15.375C18.4219 15.375 21.8981 15.3994 25.1766 18.5044C26.6897 18.0638 28.3088 17.8125 30 17.8125C31.6912 17.8125 33.3103 18.0638 34.8234 18.5044C38.1019 15.3994 41.5781 15.375 41.5781 15.375C42.1097 16.7569 42.1875 18.1781 42.1875 19.3359C42.1875 21.225 41.9363 22.3266 41.7825 22.8019C43.5619 24.8203 44.625 27.3038 44.625 30C44.625 35.3288 40.5909 38.6072 34.875 39.75C36.4013 41.0906 37.3125 43.0434 37.3125 45.2344V53.2566C36.7725 53.4263 36.2231 53.5734 35.6672 53.7056C46.395 51.15 54.375 41.5097 54.375 30C54.375 16.5384 43.4616 5.625 30 5.625ZM31.6997 54.3094C31.1381 54.3488 30.5719 54.375 30 54.375C30.5719 54.375 31.1372 54.3478 31.6997 54.3094ZM35.4244 53.7619C34.3331 54.0103 33.2147 54.1847 32.0728 54.2812C33.2147 54.1847 34.3331 54.0094 35.4244 53.7619ZM30 54.375C29.4281 54.375 28.8619 54.3488 28.3003 54.3094C28.8628 54.3478 29.4281 54.375 30 54.375ZM27.9263 54.2812C26.7853 54.1847 25.6659 54.0103 24.5756 53.7619C25.6669 54.0094 26.7853 54.1847 27.9263 54.2812Z" fill="#494949"/>
</svg>
