<svg width="52" height="52" viewBox="0 0 52 52" fill="none" xmlns="http://www.w3.org/2000/svg">
<path d="M45.2 0.800003H6.79999C3.48799 0.800003 0.799988 3.488 0.799988 6.8V45.2C0.799988 48.512 3.48799 51.2 6.79999 51.2H45.2C48.512 51.2 51.2 48.512 51.2 45.2V6.8C51.2 3.488 48.512 0.800003 45.2 0.800003ZM16.4 20V42.8H9.19999V20H16.4ZM9.19999 13.364C9.19999 11.684 10.64 10.4 12.8 10.4C14.96 10.4 16.316 11.684 16.4 13.364C16.4 15.044 15.056 16.4 12.8 16.4C10.64 16.4 9.19999 15.044 9.19999 13.364ZM42.8 42.8H35.6C35.6 42.8 35.6 31.688 35.6 30.8C35.6 28.4 34.4 26 31.4 25.952H31.304C28.4 25.952 27.2 28.424 27.2 30.8C27.2 31.892 27.2 42.8 27.2 42.8H20V20H27.2V23.072C27.2 23.072 29.516 20 34.172 20C38.936 20 42.8 23.276 42.8 29.912V42.8Z" fill="#494949"/>
</svg>
