<svg width="50" height="42" viewBox="0 0 50 42" fill="none" xmlns="http://www.w3.org/2000/svg">
<path fill-rule="evenodd" clip-rule="evenodd" d="M38.3 41.4563C38.9708 41.9313 39.8354 42.05 40.6063 41.7583C41.3771 41.4646 41.9438 40.8063 42.1146 40.0083C43.925 31.5 48.3167 9.96459 49.9646 2.225C50.0896 1.64167 49.8813 1.03542 49.4229 0.645837C48.9646 0.256254 48.3292 0.143754 47.7625 0.35417C39.0271 3.5875 12.125 13.6813 1.12917 17.75C0.431255 18.0083 -0.0229118 18.6792 4.88729e-06 19.4146C0.0250049 20.1521 0.520838 20.7917 1.23542 21.0063C6.16667 22.4813 12.6396 24.5333 12.6396 24.5333C12.6396 24.5333 15.6646 33.6688 17.2417 38.3146C17.4396 38.8979 17.8958 39.3563 18.4979 39.5146C19.0979 39.6708 19.7396 39.5063 20.1875 39.0833C22.7208 36.6917 26.6375 32.9937 26.6375 32.9937C26.6375 32.9937 34.0792 38.45 38.3 41.4563V41.4563ZM15.3625 23.3792L18.8604 34.9167L19.6375 27.6104C19.6375 27.6104 33.1521 15.4208 40.8563 8.47292C41.0813 8.26875 41.1125 7.92709 40.925 7.6875C40.7396 7.44792 40.3979 7.39167 40.1417 7.55417C31.2125 13.2563 15.3625 23.3792 15.3625 23.3792Z" fill="#494949"/>
</svg>
